<svg height="512pt" viewBox="-37 0 512 512" width="512pt" xmlns="http://www.w3.org/2000/svg"><path d="m340.992188 56.410156c0 31.152344-25.253907 56.410156-56.410157 56.410156-31.152343 0-56.40625-25.257812-56.40625-56.410156 0-31.15625 25.253907-56.410156 56.40625-56.410156 31.15625 0 56.410157 25.253906 56.410157 56.410156zm0 0" fill="#ffcd00"/><path d="m228.175781 56.410156c0 31.152344 25.253907 56.410156 56.40625 56.410156 4.996094 0 9.832031-.648437 14.445313-1.867187 11.488281-53.121094-10.261719-90-27.664063-109.394531-24.78125 5.945312-43.1875 28.246094-43.1875 54.851562zm0 0" fill="#ffb600"/><path d="m264.074219 56.410156c0 31.152344-25.253907 56.410156-56.410157 56.410156-31.152343 0-56.40625-25.257812-56.40625-56.410156 0-31.15625 25.253907-56.410156 56.40625-56.410156 31.15625 0 56.410157 25.253906 56.410157 56.410156zm0 0" fill="#ffde55"/><path d="m9.285156 295.824219c-9.519531-6.230469-12.140625-19.03125-5.886718-28.539063 43.710937-66.445312 105.75-82.980468 108.371093-83.652344l10.230469 39.917969.105469-.027343c-.492188.132812-49.679688 13.8125-84.28125 66.410156-5.441407 8.269531-16.53125 13.742187-28.539063 5.890625zm0 0" fill="#935b45"/><path d="m40.636719 346.90625c-11.136719-2.347656-18.226563-13.320312-15.851563-24.449219 16.597656-77.789062 68.398438-115.722656 70.59375-117.300781l24.027344 33.476562.089844-.066406c-.410156.304688-41.273438 30.914063-54.410156 92.488282-2.066407 9.679687-10.410157 18.808593-24.449219 15.851562zm0 0" fill="#b2785b"/><path d="m158.402344 215.800781c0 22.203125-17.996094 40.199219-40.199219 40.199219s-40.199219-17.996094-40.199219-40.199219 17.996094-40.199219 40.199219-40.199219 40.199219 17.996094 40.199219 40.199219zm0 0" fill="#c68d6d"/><path d="m437.53125 378.929688c0 105.710937-85.695312 133.070312-191.40625 133.070312s-191.40625-27.359375-191.40625-133.070312c0-105.710938 85.695312-192.851563 191.40625-192.851563s191.40625 87.140625 191.40625 192.851563zm0 0" fill="#fce6d4"/><path d="m300.582031 242.4375v-48.378906c-17.261719-5.191406-35.539062-7.980469-54.457031-7.980469-105.710938 0-191.40625 87.140625-191.40625 192.851563 0 86.152343 56.925781 120.265624 135.210938 129.9375-36.664063-50.503907-32.875-111.039063-22.167969-154.574219 7.613281-30.957031 31.25-55.285157 61.746093-64.566407 47.308594-14.402343 71.074219-47.289062 71.074219-47.289062zm0 0" fill="#efd4bf"/><path d="m246.125 71.984375c-30.964844 0-61.929688-4.75-91.769531-14.242187-21.351563-6.792969-41.34375 13.546874-34.015625 34.726562l36.746094 106.25h178.078124l36.746094-106.25c7.324219-21.179688-12.664062-41.519531-34.019531-34.726562-29.835937 9.492187-60.800781 14.242187-91.765625 14.242187zm0 0" fill="#fce6d4"/><path d="m200.324219 68.5c-15.511719-2.375-30.882813-5.960938-45.964844-10.757812-21.355469-6.792969-41.34375 13.546874-34.019531 34.726562l36.746094 106.246094h106.757812c-47.964844-39.089844-60.347656-99.746094-63.519531-130.214844zm0 0" fill="#efd4bf"/><path d="m246.125 247.21875c-32.902344 0-65.800781-5.195312-97.789062-15.589844-21.914063-7.121094-33.90625-30.65625-26.789063-52.570312 7.121094-21.917969 30.660156-33.910156 52.574219-26.789063 47.105468 15.308594 96.902344 15.308594 144.003906 0 21.914062-7.117187 45.453125 4.871094 52.574219 26.789063 7.121093 21.914062-4.871094 45.449218-26.785157 52.570312-31.988281 10.394532-64.890624 15.589844-97.789062 15.589844zm0 0" fill="#eab9a4"/><path d="m180.171875 376.640625c0-13.578125-13.828125-24.589844-30.878906-24.589844-17.054688 0-30.878907 11.011719-30.878907 24.589844 0 13.582031 13.824219 24.589844 30.878907 24.589844 17.050781 0 30.878906-11.007813 30.878906-24.589844zm0 0" fill="#ffa6bb"/><path d="m373.835938 376.640625c0-13.578125-13.824219-24.589844-30.878907-24.589844-17.054687 0-30.878906 11.011719-30.878906 24.589844 0 13.582031 13.824219 24.589844 30.878906 24.589844 17.054688 0 30.878907-11.007813 30.878907-24.589844zm0 0" fill="#ffa6bb"/><g fill="#57565c"><path d="m246.125 372.648438c-10 0-20-3.234376-28.34375-9.707032-3.375-2.617187-3.984375-7.46875-1.371094-10.84375 2.613282-3.371094 7.46875-3.984375 10.839844-1.367187 11.113281 8.617187 26.632812 8.617187 37.746094 0 3.371094-2.617188 8.226562-2.003907 10.839844 1.367187 2.617187 3.375 2.003906 8.226563-1.367188 10.84375-8.34375 6.472656-18.34375 9.707032-28.34375 9.707032zm0 0"/><path d="m168.308594 357.828125c-1.730469-2.542969-4.25-2.847656-5.277344-2.847656-1.023438 0-3.585938.277343-5.277344 2.847656-2.34375 3.566406-7.132812 4.558594-10.699218 2.214844-3.566407-2.34375-4.558594-7.132813-2.214844-10.699219 4.039062-6.148438 10.839844-9.816406 18.191406-9.816406 7.355469 0 14.15625 3.667968 18.195312 9.816406 2.34375 3.566406 1.351563 8.355469-2.214843 10.699219-1.308594.859375-7.089844 3.082031-10.703125-2.214844zm0 0"/><path d="m334.492188 357.828125c-1.730469-2.542969-4.25-2.847656-5.277344-2.847656-1.023438 0-3.589844.277343-5.277344 2.847656-2.34375 3.566406-7.132812 4.558594-10.699219 2.214844-3.566406-2.34375-4.558593-7.132813-2.214843-10.699219 4.039062-6.148438 10.839843-9.816406 18.191406-9.816406 7.355468 0 14.15625 3.667968 18.195312 9.816406 2.34375 3.566406 1.351563 8.355469-2.214844 10.699219-1.308593.859375-7.09375 3.082031-10.703124-2.214844zm0 0"/></g><path d="m214.789062 210.695312c-10.335937-25.730468 17.449219-47.367187 17.449219-47.367187-19.578125-1.179687-39.0625-4.867187-58.117187-11.058594-21.914063-7.121093-45.453125 4.871094-52.574219 26.789063-7.117187 21.914062 4.875 45.449218 26.789063 52.570312 31.988281 10.394532 64.886718 15.589844 97.789062 15.589844 17.855469 0 35.730469-1.53125 53.4375-4.59375-31.914062-14.894531-75.167969-8.019531-84.773438-31.929688zm0 0" fill="#dd9f80"/></svg>