<svg height="511pt" viewBox="-185 0 511 511.999" width="511pt" xmlns="http://www.w3.org/2000/svg"><path d="m123.535156 238.203125h-103.46875s-.445312 143.839844 27.582032 255.03125c6.304687 25.011719 42 25.011719 48.304687 0 28.027344-111.191406 27.582031-255.03125 27.582031-255.03125zm0 0" fill="#dd9f80"/><path d="m20.066406 238.203125s-.445312 143.839844 27.582032 255.03125c5.992187 23.761719 38.492187 24.929687 47.128906 3.539063-19.273438-43.40625-26.667969-94.785157-29.453125-131.1875-1.820313-23.792969 12.550781-46.035157 35.125-53.769532 8.054687-2.757812 15.210937-6.003906 21.097656-9.042968 2.070313-38.503907 1.988281-64.570313 1.988281-64.570313zm0 0" fill="#c68d6d"/><path d="m30.152344 181.34375s-43.230469-62.296875-7.644532-125.992188c11.859376-21.226562 19.082032-36.507812 23.441407-47.445312 3.976562-9.972656 17.859375-10.691406 22.753906-1.136719 9.675781 18.882813 19.042969 47.394531 14.148437 82.230469-.421874.066406 11.203126-6.976562 20.488282-18.175781 6.425781-7.75 18.90625-5.550781 22.335937 3.914062 9.1875 25.351563 16.535157 64.609375-10.015625 93.035157.023438-.003907-85.507812 13.570312-85.507812 13.570312zm0 0" fill="#ffc477"/><path d="m58.558594 119.347656c-27.46875-3.582031-41.027344-18.234375-47.382813-34.664062-11.875 52.203125 18.976563 96.660156 18.976563 96.660156s85.527344-13.574219 85.507812-13.570312c13.269532-14.207032 18.074219-31.121094 18.410156-47.648438-22.488281.84375-47.113281 2.929688-75.511718-.777344zm0 0" fill="#ffaa45"/><path d="m124.929688 270.847656c16.792968-16.796875 16.792968-44.027344 0-60.824218l-51.011719-51.007813c-16.796875-16.796875-44.027344-16.796875-60.820313 0-16.796875 16.792969-16.796875 44.023437 0 60.820313l51.007813 51.011718c16.796875 16.792969 44.027343 16.792969 60.824219 0zm0 0" fill="#efd4bf"/><path d="m13.097656 270.457031c-13.5-13.5-13.5-35.390625 0-48.890625l68.515625-68.515625c13.5-13.5 35.390625-13.5 48.890625 0s13.5 35.386719 0 48.886719l-68.519531 68.519531c-13.5 13.5-35.386719 13.5-48.886719 0zm0 0" fill="#fce6d4"/><path d="m95.953125 493.234375c7.777344-30.851563 13.363281-64.21875 17.371094-96.328125h-83.046875c4.011718 32.109375 9.597656 65.476562 17.375 96.328125 6.300781 25.011719 41.996094 25.011719 48.300781 0zm0 0" fill="#898890"/><path d="m47.648438 493.234375c5.992187 23.761719 38.507812 24.960937 47.144531 3.566406-14.222657-32.023437-21.988281-68.40625-26.191407-99.898437h-38.324218c4.011718 32.113281 9.59375 65.480468 17.371094 96.332031zm0 0" fill="#6a6a72"/></svg>