<?xml version="1.0" encoding="UTF-8" standalone="no"?>
<svg
   xmlns:dc="http://purl.org/dc/elements/1.1/"
   xmlns:cc="http://creativecommons.org/ns#"
   xmlns:rdf="http://www.w3.org/1999/02/22-rdf-syntax-ns#"
   xmlns:svg="http://www.w3.org/2000/svg"
   xmlns="http://www.w3.org/2000/svg"
   xmlns:sodipodi="http://sodipodi.sourceforge.net/DTD/sodipodi-0.dtd"
   xmlns:inkscape="http://www.inkscape.org/namespaces/inkscape"
   inkscape:version="1.0 (4035a4f, 2020-05-01)"
   sodipodi:docname="042-fire.svg"
   id="svg1061"
   version="1.1"
   width="512pt"
   viewBox="0 -18 512.00052 512"
   height="512pt">
  <metadata
     id="metadata1067">
    <rdf:RDF>
      <cc:Work
         rdf:about="">
        <dc:format>image/svg+xml</dc:format>
        <dc:type
           rdf:resource="http://purl.org/dc/dcmitype/StillImage" />
      </cc:Work>
    </rdf:RDF>
  </metadata>
  <defs
     id="defs1065" />
  <sodipodi:namedview
     inkscape:current-layer="svg1061"
     inkscape:window-maximized="0"
     inkscape:window-y="0"
     inkscape:window-x="0"
     inkscape:cy="341.33333"
     inkscape:cx="341.33333"
     inkscape:zoom="0.84521484"
     showgrid="false"
     id="namedview1063"
     inkscape:window-height="900"
     inkscape:window-width="1440"
     inkscape:pageshadow="2"
     inkscape:pageopacity="0"
     guidetolerance="10"
     gridtolerance="10"
     objecttolerance="10"
     borderopacity="1"
     bordercolor="#666666"
     pagecolor="#ffffff" />
  <g
     transform="matrix(0.94800678,0,0,0.94800678,13.310979,12.724093)"
     id="g1639">
    <path
       d="m 502.02344,155.84766 c -13.30078,-13.30469 -34.8711,-13.30469 -48.17188,0 l -76.64062,76.40625 c -11.87891,11.8789 -31.13672,11.8789 -43.01563,0 -11.875,-11.875 -11.875,-31.13282 0,-43.01172 l 6.29688,-6.29688 c 13.30468,-13.30469 13.30468,-34.87109 0,-48.17187 -13.30078,-13.30469 -34.86719,-13.30469 -48.17188,0 l -13.92187,13.91797 c -11.875,11.8789 -31.13672,11.8789 -43.01172,0 -11.87891,-11.875 -11.87891,-31.13282 0,-43.01172 l 47.52734,-47.531252 c 13.30469,-13.300782 13.30469,-34.867188 0,-48.171876 -13.30078,-13.300781 -34.87109,-13.300781 -48.17187,0 0,0 -185.332034,185.097658 -187.02344,186.789058 -63.625,63.62891 -63.625,167.15235 0,230.78125 61.92188,61.91797 161.62109,63.57032 225.56641,4.97657 l 228.73828,-228.5 c 13.30078,-13.3086 13.30078,-34.875 0,-48.17578 z m 0,0"
       fill="#ffbc97"
       id="path1043" />
    <path
       d="M 157.61719,318.69922 C 97.101562,247.93359 111.36719,165.32813 129.33594,115.25 87.28125,157.25391 48.488281,196 47.71875,196.76953 c -63.625,63.625 -63.625,167.14844 0,230.77734 42.496094,42.49219 102.78125,56.59766 157.09766,42.32813 2.60546,-48.08203 -6.66016,-103.77344 -47.19922,-151.17578 z m 0,0"
       fill="#ff9478"
       id="path1045" />
    <path
       d="m 284.76172,312.15234 c 0,67.19141 -54.46484,121.65625 -121.65234,121.65625 -67.187505,0 -121.656255,-54.46484 -121.656255,-121.65625 0,-67.1875 54.46875,-121.65234 121.656255,-121.65234 67.1875,0 121.65234,54.46484 121.65234,121.65234 z m 0,0"
       fill="#ff737d"
       id="path1047" />
    <path
       d="m 157.61719,318.69922 c -32.61328,-38.14063 -43.50781,-79.72656 -43.8086,-117.79688 -13.32031,5.89844 -25.800778,14.3125 -36.722652,25.23047 -47.507813,47.51172 -47.507813,124.53906 0,172.04688 34.226562,34.22656 83.777342,43.79297 126.570312,28.70312 -4.15234,-36.4375 -17.16016,-74.41406 -46.03906,-108.18359 z m 0,0"
       fill="#f46262"
       id="path1049" />
    <g
       fill="#57565c"
       id="g1057">
      <path
         d="m 198.13281,367.17578 c -3.01562,-3.01953 -3.01562,-7.91016 0,-10.92969 l 9.07031,-9.0664 c 3.01954,-3.01953 7.91016,-3.01953 10.92969,0 3.01563,3.01562 3.01563,7.91015 0,10.92578 l -9.07031,9.07031 c -3.01953,3.01563 -7.91016,3.01953 -10.92969,0 z m 0,0"
         id="path1051" />
      <path
         d="m 108.08984,277.12891 c -3.01953,-3.01563 -3.01953,-7.91016 0,-10.92579 l 9.06641,-9.07031 c 3.01953,-3.01562 7.91016,-3.01562 10.92969,0 3.01562,3.01953 3.01562,7.91016 0,10.92578 l -9.07031,9.07032 c -3.01954,3.01953 -7.91016,3.01953 -10.92579,0 z m 0,0"
         id="path1053" />
      <path
         d="m 167.76172,314.96484 c -3.01953,0.57032 -5.01953,-0.99609 -5.74219,-1.71875 -0.72656,-0.72656 -2.34375,-2.73437 -1.71875,-5.74609 0.86328,-4.17969 -1.82031,-8.26953 -6,-9.13281 -4.17969,-0.86719 -8.26562,1.82031 -9.13281,6 -1.49219,7.19922 0.72265,14.60547 5.92187,19.80468 5.20313,5.19922 12.60547,7.41407 19.80469,5.92188 4.17969,-0.86719 6.86719,-4.95313 6,-9.13281 -0.31641,-1.53125 -2.83203,-7.19141 -9.13281,-5.9961 z m 0,0"
         id="path1055" />
    </g>
    <path
       d="m 366.84766,108.41406 c -13.29688,-13.296872 -13.29688,-34.855466 0,-48.156248 l 16.80859,-16.804687 c 13.29687,-13.296875 34.85547,-13.296875 48.15234,0 13.30078,13.296875 13.30078,34.855469 0,48.15625 l -16.80468,16.804685 c -13.29688,13.29688 -34.85547,13.29688 -48.15625,0 z m 0,0"
       fill="#ff9478"
       id="path1059" />
  </g>
</svg>
