<?xml version="1.0" encoding="UTF-8" standalone="no"?>
<!-- Generator: Adobe Illustrator 19.0.0, SVG Export Plug-In . SVG Version: 6.00 Build 0)  -->

<svg
   xmlns:dc="http://purl.org/dc/elements/1.1/"
   xmlns:cc="http://creativecommons.org/ns#"
   xmlns:rdf="http://www.w3.org/1999/02/22-rdf-syntax-ns#"
   xmlns:svg="http://www.w3.org/2000/svg"
   xmlns="http://www.w3.org/2000/svg"
   xmlns:sodipodi="http://sodipodi.sourceforge.net/DTD/sodipodi-0.dtd"
   xmlns:inkscape="http://www.inkscape.org/namespaces/inkscape"
   version="1.1"
   id="Capa_1"
   x="0px"
   y="0px"
   viewBox="0 0 512 512"
   style="enable-background:new 0 0 512 512;"
   xml:space="preserve"
   sodipodi:docname="alltest.svg"
   inkscape:version="0.92.4 (fd57863, 2020-04-02)"><metadata
   id="metadata4407"><rdf:RDF><cc:Work
       rdf:about=""><dc:format>image/svg+xml</dc:format><dc:type
         rdf:resource="http://purl.org/dc/dcmitype/StillImage" /><dc:title /></cc:Work></rdf:RDF></metadata><defs
   id="defs4405" /><sodipodi:namedview
   pagecolor="#ffffff"
   bordercolor="#666666"
   borderopacity="1"
   objecttolerance="10"
   gridtolerance="10"
   guidetolerance="10"
   inkscape:pageopacity="0"
   inkscape:pageshadow="2"
   inkscape:window-width="1853"
   inkscape:window-height="1025"
   id="namedview4403"
   showgrid="false"
   inkscape:zoom="1.21"
   inkscape:cx="256"
   inkscape:cy="256"
   inkscape:window-x="67"
   inkscape:window-y="27"
   inkscape:window-maximized="1"
   inkscape:current-layer="Capa_1" />






















<g
   id="g8847"
   transform="matrix(1.461663,0,0,1.461663,-115.34152,-101.33559)"><g
     transform="matrix(0.48992796,0,0,0.48992796,81.818217,118.90382)"
     id="g8725"><path
       style="fill:#d7f3ff"
       d="M 377.06445,29.371094 C 372.70612,29.355531 368.273,30.193172 364,31.982422 L 20.599609,175.7832 C 3.5086102,182.9412 -4.5447188,202.59845 2.6132812,219.68945 L 104.09375,462.02734 c 7.158,17.092 26.81525,25.14629 43.90625,17.98828 L 491.39844,336.2168 c 17.092,-7.158 25.14628,-26.81721 17.98828,-43.90821 l -39.5,-94.32812 C 434.32962,114.48798 435.95188,119.86618 414.31836,65.28125 L 407.90625,49.970703 C 402.5385,37.152453 390.13944,29.417781 377.06445,29.371094 Z"
       id="path4344"
       inkscape:connector-curvature="0"
       sodipodi:nodetypes="sccccccccccs" /><path
       inkscape:connector-curvature="0"
       style="fill:#bdebff"
       d="M 123.222,287.914 C 95.465,209.735 120.378,155.103 145.249,123.586 L 20.601,175.783 C 3.509,182.941 -4.545,202.599 2.613,219.69 l 101.48,242.338 c 7.158,17.092 26.816,25.146 43.907,17.988 l 96.798,-40.535 C 210.702,402.526 157.531,384.545 123.222,287.914 Z"
       id="path4346" /><path
       inkscape:connector-curvature="0"
       style="fill:#acabb1"
       d="m 509.388,292.31 -24.07,-57.48 -405.295,169.719 24.07,57.48 c 7.158,17.092 26.816,25.146 43.907,17.988 l 343.398,-143.8 c 17.093,-7.157 25.147,-26.815 17.99,-43.907 z"
       id="path4348" /><g
       id="g4354"><path
         inkscape:connector-curvature="0"
         style="fill:#ffde55;fill-opacity:1"
         d="m 39.691,214.807 c -1.648,-3.936 0.206,-8.463 4.142,-10.111 L 284.905,103.745 c 3.935,-1.648 8.462,0.206 10.11,4.142 1.648,3.936 -0.206,8.463 -4.142,10.111 L 49.802,218.95 c -5.397,1.632 -8.871,-1.182 -10.111,-4.143 z"
         id="path4350" /><path
         inkscape:connector-curvature="0"
         style="fill:#ffde55;fill-opacity:1"
         d="m 54.68,250.599 c -1.648,-3.936 0.206,-8.463 4.142,-10.111 L 170,193.932 c 3.936,-1.646 8.463,0.206 10.111,4.142 1.648,3.936 -0.206,8.463 -4.142,10.111 L 64.791,254.741 c -5.169,1.928 -8.872,-1.18 -10.111,-4.142 z"
         id="path4352" /></g><g
       id="g4360"><path
         inkscape:connector-curvature="0"
         style="fill:#ffcd00;fill-opacity:1"
         d="m 43.833,204.696 c -3.936,1.648 -5.791,6.175 -4.142,10.111 1.24,2.961 4.714,5.774 10.111,4.142 l 63.914,-26.764 c 1.23,-6.567 2.836,-12.816 4.743,-18.739 z"
         id="path4356" /><path
         inkscape:connector-curvature="0"
         style="fill:#ffcd00;fill-opacity:1"
         d="m 54.68,250.599 c 1.24,2.961 4.942,6.07 10.111,4.142 l 46.783,-19.591 c -0.45,-5.679 -0.619,-11.193 -0.525,-16.533 l -52.226,21.87 c -3.937,1.649 -5.792,6.177 -4.143,10.112 z"
         id="path4358" /></g><path
       inkscape:connector-curvature="0"
       style="fill:#898890"
       d="m 167.299,368.003 -87.275,36.547 24.07,57.48 c 7.158,17.092 26.816,25.146 43.907,17.988 l 96.798,-40.535 c -21.438,-23.236 -50.412,-38.985 -77.5,-71.48 z"
       id="path4362" /><g
       id="g4370"><path
         inkscape:connector-curvature="0"
         style="fill:#57565c"
         d="m 338.105,228.999 c -3.936,1.648 -8.463,-0.206 -10.111,-4.142 l -4.954,-11.831 c -1.648,-3.936 0.206,-8.463 4.142,-10.111 3.936,-1.648 8.463,0.206 10.111,4.142 l 4.954,11.831 c 1.648,3.936 -0.206,8.463 -4.142,10.111 z"
         id="path4364" /><path
         inkscape:connector-curvature="0"
         style="fill:#57565c"
         d="m 184.819,293.188 c -3.936,1.648 -8.463,-0.206 -10.111,-4.142 l -4.954,-11.831 c -1.648,-3.936 0.206,-8.463 4.142,-10.111 3.936,-1.648 8.463,0.206 10.111,4.142 l 4.954,11.831 c 1.648,3.936 -0.206,8.462 -4.142,10.111 z"
         id="path4366" /><path
         inkscape:connector-curvature="0"
         style="fill:#57565c"
         d="m 264.587,268.556 c -9.224,3.862 -19.698,4.741 -29.894,1.993 -4.121,-1.109 -6.56,-5.35 -5.451,-9.47 1.108,-4.121 5.35,-6.561 9.469,-5.451 13.58,3.658 27.896,-2.336 34.817,-14.58 2.098,-3.714 6.814,-5.024 10.527,-2.924 3.715,2.1 5.025,6.814 2.925,10.528 -5.195,9.194 -13.17,16.041 -22.393,19.904 z"
         id="path4368" /></g><g
       id="g4372" /><g
       id="g4374" /><g
       id="g4376" /><g
       id="g4378" /><g
       id="g4380" /><g
       id="g4382" /><g
       id="g4384" /><g
       id="g4386" /><g
       id="g4388" /><g
       id="g4390" /><g
       id="g4392" /><g
       id="g4394" /><g
       id="g4396" /><g
       id="g4398" /><g
       id="g4400" /></g><g
     id="g8785"
     transform="matrix(0.48992796,0,0,0.48992796,175.44672,119.19606)"><path
       sodipodi:nodetypes="sccccccccccs"
       inkscape:connector-curvature="0"
       id="path8727"
       d="M 377.06445,29.371094 C 372.70612,29.355531 368.273,30.193172 364,31.982422 L 20.599609,175.7832 C 3.5086102,182.9412 -4.5447188,202.59845 2.6132812,219.68945 L 104.09375,462.02734 c 7.158,17.092 26.81525,25.14629 43.90625,17.98828 L 491.39844,336.2168 c 17.092,-7.158 25.14628,-26.81721 17.98828,-43.90821 l -39.5,-94.32812 C 434.32962,114.48798 435.95188,119.86618 414.31836,65.28125 L 407.90625,49.970703 C 402.5385,37.152453 390.13944,29.417781 377.06445,29.371094 Z"
       style="fill:#d7f3ff" /><path
       id="path8729"
       d="M 123.222,287.914 C 95.465,209.735 120.378,155.103 145.249,123.586 L 20.601,175.783 C 3.509,182.941 -4.545,202.599 2.613,219.69 l 101.48,242.338 c 7.158,17.092 26.816,25.146 43.907,17.988 l 96.798,-40.535 C 210.702,402.526 157.531,384.545 123.222,287.914 Z"
       style="fill:#bdebff"
       inkscape:connector-curvature="0" /><path
       id="path8731"
       d="m 509.388,292.31 -24.07,-57.48 -405.295,169.719 24.07,57.48 c 7.158,17.092 26.816,25.146 43.907,17.988 l 343.398,-143.8 c 17.093,-7.157 25.147,-26.815 17.99,-43.907 z"
       style="fill:#acabb1"
       inkscape:connector-curvature="0" /><g
       id="g8737"><path
         id="path8733"
         d="m 39.691,214.807 c -1.648,-3.936 0.206,-8.463 4.142,-10.111 L 284.905,103.745 c 3.935,-1.648 8.462,0.206 10.11,4.142 1.648,3.936 -0.206,8.463 -4.142,10.111 L 49.802,218.95 c -5.397,1.632 -8.871,-1.182 -10.111,-4.143 z"
         style="fill:#ffde55;fill-opacity:1"
         inkscape:connector-curvature="0" /><path
         id="path8735"
         d="m 54.68,250.599 c -1.648,-3.936 0.206,-8.463 4.142,-10.111 L 170,193.932 c 3.936,-1.646 8.463,0.206 10.111,4.142 1.648,3.936 -0.206,8.463 -4.142,10.111 L 64.791,254.741 c -5.169,1.928 -8.872,-1.18 -10.111,-4.142 z"
         style="fill:#ffde55;fill-opacity:1"
         inkscape:connector-curvature="0" /></g><g
       id="g8743"><path
         id="path8739"
         d="m 43.833,204.696 c -3.936,1.648 -5.791,6.175 -4.142,10.111 1.24,2.961 4.714,5.774 10.111,4.142 l 63.914,-26.764 c 1.23,-6.567 2.836,-12.816 4.743,-18.739 z"
         style="fill:#ffcd00;fill-opacity:1"
         inkscape:connector-curvature="0" /><path
         id="path8741"
         d="m 54.68,250.599 c 1.24,2.961 4.942,6.07 10.111,4.142 l 46.783,-19.591 c -0.45,-5.679 -0.619,-11.193 -0.525,-16.533 l -52.226,21.87 c -3.937,1.649 -5.792,6.177 -4.143,10.112 z"
         style="fill:#ffcd00;fill-opacity:1"
         inkscape:connector-curvature="0" /></g><path
       id="path8745"
       d="m 167.299,368.003 -87.275,36.547 24.07,57.48 c 7.158,17.092 26.816,25.146 43.907,17.988 l 96.798,-40.535 c -21.438,-23.236 -50.412,-38.985 -77.5,-71.48 z"
       style="fill:#898890"
       inkscape:connector-curvature="0" /><g
       id="g8753"><path
         id="path8747"
         d="m 338.105,228.999 c -3.936,1.648 -8.463,-0.206 -10.111,-4.142 l -4.954,-11.831 c -1.648,-3.936 0.206,-8.463 4.142,-10.111 3.936,-1.648 8.463,0.206 10.111,4.142 l 4.954,11.831 c 1.648,3.936 -0.206,8.463 -4.142,10.111 z"
         style="fill:#57565c"
         inkscape:connector-curvature="0" /><path
         id="path8749"
         d="m 184.819,293.188 c -3.936,1.648 -8.463,-0.206 -10.111,-4.142 l -4.954,-11.831 c -1.648,-3.936 0.206,-8.463 4.142,-10.111 3.936,-1.648 8.463,0.206 10.111,4.142 l 4.954,11.831 c 1.648,3.936 -0.206,8.462 -4.142,10.111 z"
         style="fill:#57565c"
         inkscape:connector-curvature="0" /><path
         id="path8751"
         d="m 264.587,268.556 c -9.224,3.862 -19.698,4.741 -29.894,1.993 -4.121,-1.109 -6.56,-5.35 -5.451,-9.47 1.108,-4.121 5.35,-6.561 9.469,-5.451 13.58,3.658 27.896,-2.336 34.817,-14.58 2.098,-3.714 6.814,-5.024 10.527,-2.924 3.715,2.1 5.025,6.814 2.925,10.528 -5.195,9.194 -13.17,16.041 -22.393,19.904 z"
         style="fill:#57565c"
         inkscape:connector-curvature="0" /></g><g
       id="g8755" /><g
       id="g8757" /><g
       id="g8759" /><g
       id="g8761" /><g
       id="g8763" /><g
       id="g8765" /><g
       id="g8767" /><g
       id="g8769" /><g
       id="g8771" /><g
       id="g8773" /><g
       id="g8775" /><g
       id="g8777" /><g
       id="g8779" /><g
       id="g8781" /><g
       id="g8783" /></g></g></svg>