<?xml version="1.0" encoding="UTF-8" standalone="no"?>
<svg
   xmlns:dc="http://purl.org/dc/elements/1.1/"
   xmlns:cc="http://creativecommons.org/ns#"
   xmlns:rdf="http://www.w3.org/1999/02/22-rdf-syntax-ns#"
   xmlns:svg="http://www.w3.org/2000/svg"
   xmlns="http://www.w3.org/2000/svg"
   xmlns:sodipodi="http://sodipodi.sourceforge.net/DTD/sodipodi-0.dtd"
   xmlns:inkscape="http://www.inkscape.org/namespaces/inkscape"
   width="1000"
   height="1000"
   viewBox="0 0 264.58333 264.58334"
   version="1.1"
   id="svg8"
   sodipodi:docname="audio.svg"
   inkscape:version="1.0 (4035a4f, 2020-05-01)">
  <defs
     id="defs2" />
  <sodipodi:namedview
     id="base"
     pagecolor="#ffffff"
     bordercolor="#666666"
     borderopacity="1.0"
     inkscape:pageopacity="0.0"
     inkscape:pageshadow="2"
     inkscape:zoom="0.35"
     inkscape:cx="-150"
     inkscape:cy="560"
     inkscape:document-units="mm"
     inkscape:current-layer="layer1"
     inkscape:document-rotation="0"
     showgrid="false"
     units="px"
     inkscape:window-width="1252"
     inkscape:window-height="764"
     inkscape:window-x="0"
     inkscape:window-y="23"
     inkscape:window-maximized="0" />
  <metadata
     id="metadata5">
    <rdf:RDF>
      <cc:Work
         rdf:about="">
        <dc:format>image/svg+xml</dc:format>
        <dc:type
           rdf:resource="http://purl.org/dc/dcmitype/StillImage" />
        <dc:title />
      </cc:Work>
    </rdf:RDF>
  </metadata>
  <g
     style="opacity:0.77"
     inkscape:label="Layer 1"
     inkscape:groupmode="layer"
     id="layer1">
    <g
       id="g983"
       transform="matrix(0.40547576,0,0,0.49269722,35.479108,14.653554)"
       style="fill:#ffde55;fill-opacity:1">
      <g
         id="g899"
         style="fill:#ffde55;fill-opacity:1">
        <g
           id="g897"
           style="fill:#ffde55;fill-opacity:1">
          <path
             id="path895"
             d="m 213.333,104.461 c -5.28,-3.049 -11.786,-3.049 -17.067,0 L 80.794,170.424 H 17.067 C 7.641,170.424 0,178.065 0,187.49 v 102.4 c 0,9.426 7.641,17.067 17.067,17.067 h 63.727 l 115.541,66.014 c 8.185,4.675 18.609,1.83 23.284,-6.354 1.472,-2.577 2.246,-5.492 2.247,-8.46 V 119.224 c -0.006,-6.091 -3.258,-11.717 -8.533,-14.763 z"
             style="fill:#ffde55;fill-opacity:1" />
        </g>
      </g>
      <g
         id="g905"
         style="fill:#ffde55;fill-opacity:1">
        <g
           id="g903"
           style="fill:#ffde55;fill-opacity:1">
          <path
             id="path901"
             d="m 286.362,176.79 c -5.909,-7.331 -16.639,-8.492 -23.979,-2.594 -7.347,5.904 -8.517,16.647 -2.613,23.994 0,0 0.001,0.001 0.001,0.002 17.649,24.115 17.649,56.883 0,80.998 -5.95,7.31 -4.847,18.06 2.463,24.01 7.31,5.95 18.06,4.847 24.01,-2.463 0.039,-0.048 0.078,-0.096 0.117,-0.145 27.923,-36.545 27.923,-87.258 0.001,-123.802 z"
             style="fill:#ffde55;fill-opacity:1" />
        </g>
      </g>
      <g
         id="g911"
         style="fill:#ffde55;fill-opacity:1">
        <g
           id="g909"
           style="fill:#ffde55;fill-opacity:1">
          <path
             id="path907"
             d="m 354.628,125.59 c -5.909,-7.331 -16.639,-8.492 -23.979,-2.594 -7.347,5.904 -8.517,16.647 -2.612,23.994 0,0.001 0.001,0.001 0.001,0.002 40.653,54.374 40.653,129.024 0,183.398 -5.95,7.31 -4.847,18.06 2.463,24.01 7.31,5.95 18.06,4.847 24.01,-2.463 0.039,-0.048 0.078,-0.096 0.117,-0.145 50.143,-67.065 50.143,-159.138 0,-226.202 z"
             style="fill:#ffde55;fill-opacity:1" />
        </g>
      </g>
      <g
         id="g917"
         style="fill:#ffde55;fill-opacity:1">
        <g
           id="g915"
           style="fill:#ffde55;fill-opacity:1">
          <path
             id="path913"
             d="m 422.895,74.39 c -5.95,-7.31 -16.7,-8.413 -24.01,-2.463 -7.254,5.904 -8.405,16.547 -2.58,23.865 63.352,84.734 63.352,201.065 0,285.798 -5.95,7.31 -4.847,18.06 2.463,24.01 7.31,5.95 18.06,4.847 24.01,-2.463 0.039,-0.048 0.078,-0.096 0.117,-0.145 72.841,-97.425 72.841,-231.179 0,-328.602 z"
             style="fill:#ffde55;fill-opacity:1" />
        </g>
      </g>
      <g
         id="g919"
         style="fill:#ffde55;fill-opacity:1" />
      <g
         id="g921"
         style="fill:#ffde55;fill-opacity:1" />
      <g
         id="g923"
         style="fill:#ffde55;fill-opacity:1" />
      <g
         id="g925"
         style="fill:#ffde55;fill-opacity:1" />
      <g
         id="g927"
         style="fill:#ffde55;fill-opacity:1" />
      <g
         id="g929"
         style="fill:#ffde55;fill-opacity:1" />
      <g
         id="g931"
         style="fill:#ffde55;fill-opacity:1" />
      <g
         id="g933"
         style="fill:#ffde55;fill-opacity:1" />
      <g
         id="g935"
         style="fill:#ffde55;fill-opacity:1" />
      <g
         id="g937"
         style="fill:#ffde55;fill-opacity:1" />
      <g
         id="g939"
         style="fill:#ffde55;fill-opacity:1" />
      <g
         id="g941"
         style="fill:#ffde55;fill-opacity:1" />
      <g
         id="g943"
         style="fill:#ffde55;fill-opacity:1" />
      <g
         id="g945"
         style="fill:#ffde55;fill-opacity:1" />
      <g
         id="g947"
         style="fill:#ffde55;fill-opacity:1" />
    </g>
  </g>
</svg>
