<?xml version="1.0" encoding="UTF-8" standalone="no"?>
<!-- Created with Inkscape (http://www.inkscape.org/) -->

<svg
   xmlns:dc="http://purl.org/dc/elements/1.1/"
   xmlns:cc="http://creativecommons.org/ns#"
   xmlns:rdf="http://www.w3.org/1999/02/22-rdf-syntax-ns#"
   xmlns:svg="http://www.w3.org/2000/svg"
   xmlns="http://www.w3.org/2000/svg"
   xmlns:sodipodi="http://sodipodi.sourceforge.net/DTD/sodipodi-0.dtd"
   xmlns:inkscape="http://www.inkscape.org/namespaces/inkscape"
   width="1000"
   height="1000"
   viewBox="0 0 264.58333 264.58334"
   version="1.1"
   id="svg8"
   inkscape:version="0.92.4 (f8dce91, 2019-08-02)"
   sodipodi:docname="course.svg">
  <defs
     id="defs2" />
  <sodipodi:namedview
     id="base"
     pagecolor="#ffffff"
     bordercolor="#666666"
     borderopacity="1.0"
     inkscape:pageopacity="0.0"
     inkscape:pageshadow="2"
     inkscape:zoom="0.35"
     inkscape:cx="380"
     inkscape:cy="560"
     inkscape:document-units="mm"
     inkscape:current-layer="g926"
     showgrid="false"
     units="px"
     inkscape:window-width="1853"
     inkscape:window-height="1025"
     inkscape:window-x="67"
     inkscape:window-y="27"
     inkscape:window-maximized="1" />
  <metadata
     id="metadata5">
    <rdf:RDF>
      <cc:Work
         rdf:about="">
        <dc:format>image/svg+xml</dc:format>
        <dc:type
           rdf:resource="http://purl.org/dc/dcmitype/StillImage" />
        <dc:title></dc:title>
      </cc:Work>
    </rdf:RDF>
  </metadata>
  <g
     inkscape:label="Layer 1"
     inkscape:groupmode="layer"
     id="layer1"
     transform="translate(0,-32.41665)">
    <g
       id="g926"
       transform="matrix(0.62001806,0,0,0.62001806,-318.16514,-69.989504)">
      <g
         id="g1010"
         transform="matrix(0.79885759,0,0,0.79885759,522.01444,202.40252)">
        <path
           id="path939"
           d="M 379.73828,57.082031 C 368.49609,50.507812 359.67969,40.566406 353.59766,29.050781 344.62891,12.070312 326.80469,0.5 306.26562,0.5 276.71094,0.5 252.75,24.460938 252.75,54.015625 c 0,22.710937 61.49609,118.566405 95.73047,118.566405 34.23047,0 61.98047,-27.75391 61.98047,-61.98437 0,-22.828129 -12.34375,-42.761722 -30.72266,-53.515629 z m 0,0"
           inkscape:connector-curvature="0"
           style="fill:#cf92ff" />
        <path
           id="path941"
           d="M 323.80859,49.238281 C 315.86328,43.851562 308.60937,37.464844 302.63672,29.953125 293.24219,18.136719 282.92578,12.855469 275.09375,10.511719 261.55859,20.222656 252.75,36.085938 252.75,54.015625 c 0,22.710937 61.49609,118.566405 95.73047,118.566405 6.13281,0 12.04687,-0.89062 17.64062,-2.55078 17.50782,-69.37891 -20.66797,-106.125 -42.3125,-120.792969 z m 0,0"
           inkscape:connector-curvature="0"
           style="fill:#b86eff" />
        <path
           id="path943"
           d="m 324.24219,85.859375 c -5.46485,-13.242187 -16.4375,-22.53125 -29.17188,-26.324219 -9.49609,-2.828125 -17.27734,-9.53125 -21.96484,-18.265625 -10.39844,-19.375 -30.84766,-32.546875 -54.37891,-32.546875 -20.84765,0 -39.27343,10.34375 -50.4414,26.179688 -6.23047,8.839844 -15.84766,14.558594 -26.55469,16.082031 -19.92188,2.835937 -37.20703,17.207031 -42.765626,37.863281 -7.433594,27.644534 8.945316,56.078124 36.585936,63.511714 23.59375,6.34766 142.86719,1.76172 163.91406,-6.91796 23.29297,-9.61329 34.38672,-36.28907 24.77735,-59.582035 z m 0,0"
           inkscape:connector-curvature="0"
           style="fill:#dfaeff" />
        <path
           id="path945"
           d="M 460.38672,312.48047 C 444.11719,308.48828 425.75,299.99219 408.92969,287.44531 392.10547,274.89844 378.375,259.91797 370.26172,245.25781 c -13.68359,-24.71875 -7.11719,-39.94922 -1.98828,-46.82812 5.13281,-6.87891 17.85937,-17.51172 45.45312,-11.44141 16.35938,3.59766 34.63672,12.48828 51.45703,25.03516 16.82422,12.54687 30.55469,27.53125 38.66797,42.1875 13.6836,24.71875 7.11719,39.94922 1.98828,46.82812 -4.0625,5.44531 -21.28125,17.3711 -45.45312,11.44141 z m -33.40625,-49.23828 c 12.75781,9.51953 26.32812,16.39453 38.21484,19.35937 10.92969,2.72657 15.84375,0.9375 16.47657,0.34766 0.32421,-0.69531 0.64062,-5.91406 -5.08985,-15.61328 -6.23047,-10.54688 -16.6875,-21.59375 -29.44922,-31.11328 -12.75781,-9.51563 -26.33203,-16.39063 -38.21875,-19.35547 -10.92578,-2.72656 -15.84375,-0.9375 -16.47265,-0.34766 -0.32813,0.69141 -0.64063,5.91406 5.08593,15.61328 6.23438,10.54688 16.69141,21.59375 29.45313,31.10938 z m 0,0"
           inkscape:connector-curvature="0"
           style="fill:#74747c" />
        <path
           id="path947"
           d="m 432.625,434.48437 c 7.96875,-7.96875 7.96875,-20.88671 0,-28.85156 l -23.86328,-23.86719 c -7.96875,-7.96484 -20.88672,-7.96484 -28.85156,0 -7.96875,7.96875 -7.96875,20.88672 0,28.85157 l 23.86328,23.86718 c 7.96875,7.96485 20.88281,7.96485 28.85156,0 z m 0,0"
           inkscape:connector-curvature="0"
           style="fill:#74747c" />
        <path
           id="path949"
           d="M 91.492188,168.88281 H 420.47266 c 0,0 147.28125,265.61328 -164.48829,265.61328 -311.773432,0 -164.492182,-265.61328 -164.492182,-265.61328 z m 0,0"
           inkscape:connector-curvature="0"
           style="fill:#898890" />
        <path
           id="path951"
           d="M 240.95703,434.27734 C 178.875,363.19922 188.44141,239.69141 200.64062,168.88281 H 91.488281 c 0,0 -142.460937,256.9336 149.468749,265.39453 z m 0,0"
           inkscape:connector-curvature="0"
           style="fill:#74747c" />
        <path
           id="path953"
           d="M 413.99219,180.05859 H 97.976562 c -14.949218,0 -27.179687,-12.23047 -27.179687,-27.17968 0,-14.94532 12.230469,-27.17578 27.179687,-27.17578 H 413.99219 c 14.94922,0 27.17578,12.23046 27.17578,27.17578 0,14.94921 -12.22656,27.17968 -27.17578,27.17968 z m 0,0"
           inkscape:connector-curvature="0"
           style="fill:#acabb1" />
        <path
           id="path955"
           d="M 240.95703,125.70313 H 97.976562 c -14.949218,0 -27.179687,12.23046 -27.179687,27.17578 0,14.94921 12.230469,27.17578 27.179687,27.17578 H 240.95703 Z m 0,0"
           inkscape:connector-curvature="0"
           style="fill:#898890" />
        <path
           id="path957"
           d="m 175.55078,134.99219 v 123.5039 c 0,13.28907 10.77344,24.0586 24.05859,24.0586 13.28907,0 24.0625,-10.76953 24.0625,-24.0586 v -48.67578 c 0,-9.54687 7.73829,-17.28515 17.28516,-17.28515 9.54297,0 17.28125,7.73828 17.28125,17.28515 v 24 c 0,13.28906 10.77344,24.0625 24.0625,24.0625 13.28906,0 24.0625,-10.77344 24.0625,-24.0625 v -98.83203 c 0,-17.32812 -14.04687,-31.375 -31.375,-31.375 h -68.0625 c -17.32812,0 -31.375,14.05078 -31.375,31.37891 z m 0,0"
           inkscape:connector-curvature="0"
           style="fill:#eac2ff" />
        <path
           id="path959"
           d="m 137.63281,214.76562 c -7.85547,-2.78125 -16.48437,1.32813 -19.26562,9.1875 -3.35156,9.46094 -13.87891,24.7461 -33.378909,39.29297 -12.757812,9.51563 -26.332031,16.39063 -38.21875,19.35547 -10.925781,2.72656 -15.839843,0.9375 -16.414062,0.42578 1.972656,-27.72265 34.828125,-47.05859 35.003906,-47.1914 4.492187,-16.75391 10.039063,-31.625 14.863281,-43.07813 -11.1875,4.61719 -22.574218,11.16406 -33.4375,19.26563 -39.855468,29.72656 -56.953125,67.16406 -40.65625,89.01172 6.636719,8.89453 17.316406,13.22265 30.34375,13.22265 18.980469,0 42.933594,-9.1875 66.566404,-26.8125 21.47657,-16.01953 37.4336,-35.48828 43.78516,-53.41015 2.78125,-7.85938 -1.33203,-16.48438 -9.19141,-19.26954 z m 0,0"
           inkscape:connector-curvature="0"
           style="fill:#616166" />
        <path
           id="path961"
           d="m 79.34375,434.48437 c -7.96875,-7.96875 -7.96875,-20.88671 0,-28.85156 l 23.86328,-23.86719 c 7.96875,-7.96484 20.88672,-7.96484 28.85156,0 7.96875,7.96875 7.96875,20.88672 0,28.85157 l -23.86328,23.86718 c -7.96875,7.96485 -20.88281,7.96485 -28.85156,0 z m 0,0"
           inkscape:connector-curvature="0"
           style="fill:#616166" />
        <path
           id="path963"
           d="m 240.72656,337.57031 c 0,-13.26562 -13.5039,-24.01953 -30.16406,-24.01953 -16.65625,0 -30.16016,10.75391 -30.16016,24.01953 0,13.26563 13.50391,24.01953 30.16016,24.01953 16.66016,0 30.16406,-10.7539 30.16406,-24.01953 z m 0,0"
           inkscape:connector-curvature="0"
           style="fill:#ffa6bb" />
        <path
           id="path965"
           d="m 429.90625,337.57031 c 0,-13.26562 -13.50391,-24.01953 -30.16406,-24.01953 -16.65625,0 -30.16016,10.75391 -30.16016,24.01953 0,13.26563 13.50391,24.01953 30.16016,24.01953 16.66015,0 30.16406,-10.7539 30.16406,-24.01953 z m 0,0"
           inkscape:connector-curvature="0"
           style="fill:#ffa6bb" />
        <g
           id="g973"
           style="fill:#57565c">
          <path
             id="path967"
             d="m 386.32031,324.38281 c -4.16797,0 -7.54687,-3.3789 -7.54687,-7.54687 v -12.53125 c 0,-4.16797 3.3789,-7.54688 7.54687,-7.54688 4.16797,0 7.54688,3.37891 7.54688,7.54688 v 12.53125 c 0,4.16797 -3.37891,7.54687 -7.54688,7.54687 z m 0,0"
             inkscape:connector-curvature="0" />
          <path
             id="path969"
             d="m 223.98828,324.38281 c -4.17187,0 -7.54687,-3.3789 -7.54687,-7.54687 v -12.53125 c 0,-4.16797 3.3789,-7.54688 7.54687,-7.54688 4.16797,0 7.54688,3.37891 7.54688,7.54688 v 12.53125 c 0,4.16797 -3.37891,7.54687 -7.54688,7.54687 z m 0,0"
             inkscape:connector-curvature="0" />
          <path
             id="path971"
             d="m 326.14453,331.48437 c 0,-13.72656 -9.39844,-24.85546 -20.99219,-24.85546 -11.58984,0 -20.98828,11.1289 -20.98828,24.85546 0,13.72657 9.39844,24.85547 20.98828,24.85547 11.59375,0 20.99219,-11.1289 20.99219,-24.85547 z m 0,0"
             inkscape:connector-curvature="0" />
        </g>
        <path
           id="path975"
           d="m 235.90234,55.65625 c 0,8.542969 -6.92578,15.46875 -15.46875,15.46875 -8.54297,0 -15.46875,-6.925781 -15.46875,-15.46875 0,-8.542969 6.92578,-15.464844 15.46875,-15.464844 8.54297,0 15.46875,6.921875 15.46875,15.464844 z m 0,0"
           inkscape:connector-curvature="0"
           style="fill:#cf92ff" />
        <path
           id="path977"
           d="m 262.46875,143.76953 c 0,8.54297 -6.92188,15.46875 -15.46484,15.46875 -8.54297,0 -15.46875,-6.92578 -15.46875,-15.46875 0,-8.53906 6.92578,-15.46484 15.46875,-15.46484 8.54296,0 15.46484,6.92578 15.46484,15.46484 z m 0,0"
           inkscape:connector-curvature="0"
           style="fill:#dfaeff" />
        <path
           id="path979"
           d="m 171.34766,91.550781 c 0,8.542969 -6.92579,15.468749 -15.46875,15.468749 -8.54297,0 -15.46875,-6.92578 -15.46875,-15.468749 0,-8.542969 6.92578,-15.46875 15.46875,-15.46875 8.54296,0 15.46875,6.925781 15.46875,15.46875 z m 0,0"
           inkscape:connector-curvature="0"
           style="fill:#cf92ff" />
      </g>
    </g>
  </g>
</svg>
