<?xml version="1.0" encoding="UTF-8" standalone="no"?>
<svg
   xmlns:dc="http://purl.org/dc/elements/1.1/"
   xmlns:cc="http://creativecommons.org/ns#"
   xmlns:rdf="http://www.w3.org/1999/02/22-rdf-syntax-ns#"
   xmlns:svg="http://www.w3.org/2000/svg"
   xmlns="http://www.w3.org/2000/svg"
   xmlns:sodipodi="http://sodipodi.sourceforge.net/DTD/sodipodi-0.dtd"
   xmlns:inkscape="http://www.inkscape.org/namespaces/inkscape"
   inkscape:version="1.0 (4035a4f, 2020-05-01)"
   inkscape:export-ydpi="88.599998"
   inkscape:export-xdpi="88.599998"
   inkscape:export-filename="/Users/macbookpro/Desktop/projects/quiz-frontend/src/img/energy.png"
   sodipodi:docname="energy.png.svg"
   viewBox="0 0 377 165"
   height="165"
   width="377"
   id="svg8782"
   version="1.1">
  <metadata
     id="metadata8788">
    <rdf:RDF>
      <cc:Work
         rdf:about="">
        <dc:format>image/svg+xml</dc:format>
        <dc:type
           rdf:resource="http://purl.org/dc/dcmitype/StillImage" />
        <dc:title></dc:title>
      </cc:Work>
    </rdf:RDF>
  </metadata>
  <defs
     id="defs8786">
    <filter
       height="3.5427215"
       y="-1.2713608"
       width="3.2724487"
       x="-1.1362244"
       id="filter9365"
       style="color-interpolation-filters:sRGB"
       inkscape:collect="always">
      <feGaussianBlur
         id="feGaussianBlur9367"
         stdDeviation="189.02673"
         inkscape:collect="always" />
    </filter>
  </defs>
  <sodipodi:namedview
     inkscape:current-layer="g9471"
     inkscape:window-maximized="0"
     inkscape:window-y="0"
     inkscape:window-x="0"
     inkscape:cy="194.63916"
     inkscape:cx="215.17415"
     inkscape:zoom="0.40409859"
     showgrid="false"
     id="namedview8784"
     inkscape:window-height="900"
     inkscape:window-width="1440"
     inkscape:pageshadow="2"
     inkscape:pageopacity="0"
     guidetolerance="10"
     gridtolerance="10"
     objecttolerance="10"
     borderopacity="1"
     bordercolor="#666666"
     pagecolor="#ffffff" />
  <g
     id="g8790"
     inkscape:label="Image"
     inkscape:groupmode="layer">
    <ellipse
       ry="178.41676"
       rx="199.63669"
       cy="82.5"
       cx="188.5"
       id="path9355"
       style="fill:#f2f2f2;fill-opacity:1;stroke-width:1.45844;filter:url(#filter9365)" />
    <g
       id="g9427">
      <g
         inkscape:export-ydpi="88.599998"
         inkscape:export-xdpi="88.599998"
         id="g9431">
        <g
           transform="matrix(1.3333334,0,0,1.3333334,102.00857,204.52579)"
           id="g9471">
          <g
             transform="translate(-183.61776,-183.44121)"
             id="g9476">
            <g
               transform="translate(0,6.5139626)"
               inkscape:export-ydpi="88"
               inkscape:export-xdpi="88"
               id="g9492">
              <g
                 id="g9505">
                <g
                   transform="matrix(0.74999996,0,0,0.74999996,104.32735,33.783169)"
                   id="g9483">
                  <rect
                     style="opacity:1;fill:#ececec;fill-opacity:1;stroke-width:0.659424"
                     id="rect9421"
                     width="449.08066"
                     height="179.96866"
                     x="-32.328358"
                     y="-12.466053"
                     ry="89.984329"
                     inkscape:export-xdpi="87.632256"
                     inkscape:export-ydpi="87.632256" />
                </g>
                <g
                   id="g9497">
                  <path
                     d="m 184.17969,147.62109 c -11.73438,0 -21.2461,-9.51172 -21.2461,-21.24218 V 57.46875 c 0,-11.734375 9.51172,-21.246094 21.2461,-21.246094 11.73047,0 21.24218,9.511719 21.24218,21.246094 v 68.91016 c 0,11.73046 -9.51171,21.24218 -21.24218,21.24218 z m 0,0"
                     fill="#dfaeff"
                     id="path9445" />
                  <path
                     d="m 248.48437,147.62109 c -11.73046,0 -21.24218,-9.51172 -21.24218,-21.24218 V 57.46875 c 0,-11.734375 9.51172,-21.246094 21.24218,-21.246094 11.73438,0 21.2461,9.511719 21.2461,21.246094 v 68.91016 c 0,11.73046 -9.51172,21.24218 -21.2461,21.24218 z m 0,0"
                     fill="#dfaeff"
                     id="path9447" />
                  <path
                     d="m 312.79297,147.62109 c -11.73047,0 -21.24219,-9.51172 -21.24219,-21.24218 V 57.46875 c 0,-11.734375 9.51172,-21.246094 21.24219,-21.246094 11.73437,0 21.24609,9.511719 21.24609,21.246094 v 68.91016 c 0,11.73046 -9.51172,21.24218 -21.24609,21.24218 z m 0,0"
                     fill="#605f68"
                     id="path9449" />
                </g>
              </g>
            </g>
          </g>
          <g
             inkscape:export-ydpi="88"
             inkscape:export-xdpi="88"
             transform="matrix(1.4314955,0,0,1.4314955,-313.70798,-219.94328)"
             id="g9480">
            <path
               id="path9443"
               fill="#ffde55"
               d="m 128.18359,74.714844 h -16.63281 l 7.77735,-27.933594 c 2.02734,-7.289062 -3.45313,-14.5 -11.01563,-14.5 H 72.210938 c -6.925782,0 -12.773438,5.140625 -13.660157,12.007812 l -7.191406,55.691407 c -0.992187,7.691411 4.996094,14.503911 12.75,14.503911 h 18.566406 l -0.652343,32.14843 c -0.199219,9.72266 12.683593,13.3125 17.546874,4.89453 L 136.04687,88.332031 c 3.4961,-6.050781 -0.875,-13.617187 -7.86328,-13.617187 z m 0,0" />
            <path
               id="path9451"
               fill="#ffcd00"
               d="m 93.207031,90.710938 c -6.761719,-1.820313 -11.171875,-8.3125 -10.375,-15.269532 L 87.765625,32.28125 H 72.210938 c -6.925782,0 -12.773438,5.140625 -13.660157,12.007812 l -7.191406,55.695313 c -0.992187,7.687505 4.996094,14.500005 12.75,14.500005 h 18.566406 l -0.652343,32.15234 c -0.117188,5.64062 4.175781,9.21875 8.746093,9.58203 L 103.05078,107.50391 C 106.08594,93.339844 93.207031,90.710938 93.207031,90.710938 Z m 0,0" />
          </g>
        </g>
      </g>
    </g>
  </g>
</svg>
