<?xml version="1.0" encoding="UTF-8" standalone="no"?>
<svg
   xmlns:dc="http://purl.org/dc/elements/1.1/"
   xmlns:cc="http://creativecommons.org/ns#"
   xmlns:rdf="http://www.w3.org/1999/02/22-rdf-syntax-ns#"
   xmlns:svg="http://www.w3.org/2000/svg"
   xmlns="http://www.w3.org/2000/svg"
   xmlns:sodipodi="http://sodipodi.sourceforge.net/DTD/sodipodi-0.dtd"
   xmlns:inkscape="http://www.inkscape.org/namespaces/inkscape"
   inkscape:version="1.0 (4035a4f, 2020-05-01)"
   sodipodi:docname="flag.svg"
   xml:space="preserve"
   style="enable-background:new 0 0 511.999 511.999;"
   viewBox="0 0 511.999 511.999"
   y="0px"
   x="0px"
   id="Capa_1"
   version="1.1"><metadata
   id="metadata75"><rdf:RDF><cc:Work
       rdf:about=""><dc:format>image/svg+xml</dc:format><dc:type
         rdf:resource="http://purl.org/dc/dcmitype/StillImage" /><dc:title /></cc:Work></rdf:RDF></metadata><defs
   id="defs73" /><sodipodi:namedview
   inkscape:document-rotation="0"
   inkscape:current-layer="Capa_1"
   inkscape:window-maximized="1"
   inkscape:window-y="23"
   inkscape:window-x="0"
   inkscape:cy="255.99952"
   inkscape:cx="52.067698"
   inkscape:zoom="0.46093841"
   showgrid="false"
   id="namedview71"
   inkscape:window-height="764"
   inkscape:window-width="1440"
   inkscape:pageshadow="2"
   inkscape:pageopacity="0"
   guidetolerance="10"
   gridtolerance="10"
   objecttolerance="10"
   borderopacity="1"
   bordercolor="#666666"
   pagecolor="#ffffff" />






























<g
   transform="matrix(0.66101839,0,0,0.66101839,114.98175,86.778458)"
   id="g1018"><path
     inkscape:connector-curvature="0"
     style="fill:#f4e4ff;fill-opacity:1"
     d="m 417.106,233.74 90.856,-105.996 c 9.259,-10.798 1.573,-27.565 -12.674,-27.565 H 283.817 l -33.39,166.951 c -27.618,0 -50.085,22.467 -50.085,50.085 0,27.618 22.467,50.085 50.085,50.085 h 244.862 c 14.246,0 21.933,-16.765 12.674,-27.565 z"
     id="path954" /><path
     inkscape:connector-curvature="0"
     style="fill:#faf2ff;fill-opacity:1"
     d="M 250.427,33.399 H 83.476 V 300.52 h 166.951 c 27.618,0 50.085,-22.467 50.085,-50.085 V 83.484 c 0,-27.619 -22.467,-50.085 -50.085,-50.085 z"
     id="path956" /><path
     inkscape:connector-curvature="0"
     style="fill:#5d5f66"
     d="M 50.085,511.992 C 22.467,511.992 0,489.525 0,461.907 V 50.094 C 0,22.476 22.467,0.009 50.085,0.009 c 27.618,0 50.085,22.467 50.085,50.085 v 411.813 c 0.001,27.618 -22.467,50.085 -50.085,50.085 z"
     id="path958" /><path
     inkscape:connector-curvature="0"
     style="fill:#55575c"
     d="M 100.171,461.907 V 50.094 C 100.171,22.476 77.704,0.009 50.086,0.009 v 511.983 c 27.617,0 50.085,-22.467 50.085,-50.085 z"
     id="path960" /><g
     id="g962">
</g><g
     id="g964">
</g><g
     id="g966">
</g><g
     id="g968">
</g><g
     id="g970">
</g><g
     id="g972">
</g><g
     id="g974">
</g><g
     id="g976">
</g><g
     id="g978">
</g><g
     id="g980">
</g><g
     id="g982">
</g><g
     id="g984">
</g><g
     id="g986">
</g><g
     id="g988">
</g><g
     id="g990">
</g><text
     id="text1182"
     y="137.84712"
     x="-1060.0964"
     style="font-style:normal;font-weight:normal;font-size:60.5127px;line-height:1.25;font-family:sans-serif;fill:#000000;fill-opacity:1;stroke:none;stroke-width:1.51282"
     xml:space="preserve"><tspan
       style="stroke-width:1.51282"
       y="137.84712"
       x="-1060.0964"
       id="tspan1180"
       sodipodi:role="line">f4e4ffff</tspan></text></g></svg>
