<?xml version="1.0" encoding="UTF-8" standalone="no"?>
<!-- Generator: Adobe Illustrator 19.0.0, SVG Export Plug-In . SVG Version: 6.00 Build 0)  -->

<svg
   xmlns:dc="http://purl.org/dc/elements/1.1/"
   xmlns:cc="http://creativecommons.org/ns#"
   xmlns:rdf="http://www.w3.org/1999/02/22-rdf-syntax-ns#"
   xmlns:svg="http://www.w3.org/2000/svg"
   xmlns="http://www.w3.org/2000/svg"
   xmlns:sodipodi="http://sodipodi.sourceforge.net/DTD/sodipodi-0.dtd"
   xmlns:inkscape="http://www.inkscape.org/namespaces/inkscape"
   version="1.1"
   id="Capa_1"
   x="0px"
   y="0px"
   viewBox="0 0 511.999 511.999"
   style="enable-background:new 0 0 511.999 511.999;"
   xml:space="preserve"
   sodipodi:docname="flag.svg"
   inkscape:version="0.92.4 (f8dce91, 2019-08-02)"><metadata
   id="metadata75"><rdf:RDF><cc:Work
       rdf:about=""><dc:format>image/svg+xml</dc:format><dc:type
         rdf:resource="http://purl.org/dc/dcmitype/StillImage" /><dc:title></dc:title></cc:Work></rdf:RDF></metadata><defs
   id="defs73" /><sodipodi:namedview
   pagecolor="#ffffff"
   bordercolor="#666666"
   borderopacity="1"
   objecttolerance="10"
   gridtolerance="10"
   guidetolerance="10"
   inkscape:pageopacity="0"
   inkscape:pageshadow="2"
   inkscape:window-width="1853"
   inkscape:window-height="1025"
   id="namedview71"
   showgrid="false"
   inkscape:zoom="0.46093841"
   inkscape:cx="52.067698"
   inkscape:cy="255.99952"
   inkscape:window-x="67"
   inkscape:window-y="27"
   inkscape:window-maximized="1"
   inkscape:current-layer="Capa_1" />






























<path
   style="opacity:1;fill:#f0f8ff;fill-opacity:1;stroke:none;stroke-width:1.80132902;stroke-miterlimit:4;stroke-dasharray:none;stroke-opacity:1"
   id="path2186"
   sodipodi:type="arc"
   sodipodi:cx="255.98085"
   sodipodi:cy="255.9995"
   sodipodi:rx="242.98558"
   sodipodi:ry="242.98558"
   sodipodi:start="3.479279"
   sodipodi:end="3.1240695"
   sodipodi:open="true"
   d="M 26.718193,175.49716 A 242.98558,242.98558 0 0 1 315.83366,20.500805 242.98558,242.98558 0 0 1 495.85969,294.7311 242.98558,242.98558 0 0 1 238.67569,498.36807 242.98558,242.98558 0 0 1 13.032575,260.25715" /><g
   id="g1018"
   transform="matrix(0.66101839,0,0,0.66101839,114.98175,86.778458)"><path
     id="path954"
     d="m 417.106,233.74 90.856,-105.996 c 9.259,-10.798 1.573,-27.565 -12.674,-27.565 H 283.817 l -33.39,166.951 c -27.618,0 -50.085,22.467 -50.085,50.085 0,27.618 22.467,50.085 50.085,50.085 h 244.862 c 14.246,0 21.933,-16.765 12.674,-27.565 z"
     style="fill:#8766fa"
     inkscape:connector-curvature="0" /><path
     id="path956"
     d="M 250.427,33.399 H 83.476 V 300.52 h 166.951 c 27.618,0 50.085,-22.467 50.085,-50.085 V 83.484 c 0,-27.619 -22.467,-50.085 -50.085,-50.085 z"
     style="fill:#9b7ffa"
     inkscape:connector-curvature="0" /><path
     id="path958"
     d="M 50.085,511.992 C 22.467,511.992 0,489.525 0,461.907 V 50.094 C 0,22.476 22.467,0.009 50.085,0.009 c 27.618,0 50.085,22.467 50.085,50.085 v 411.813 c 0.001,27.618 -22.467,50.085 -50.085,50.085 z"
     style="fill:#5d5f66"
     inkscape:connector-curvature="0" /><path
     id="path960"
     d="M 100.171,461.907 V 50.094 C 100.171,22.476 77.704,0.009 50.086,0.009 v 511.983 c 27.617,0 50.085,-22.467 50.085,-50.085 z"
     style="fill:#55575c"
     inkscape:connector-curvature="0" /><g
     id="g962">
</g><g
     id="g964">
</g><g
     id="g966">
</g><g
     id="g968">
</g><g
     id="g970">
</g><g
     id="g972">
</g><g
     id="g974">
</g><g
     id="g976">
</g><g
     id="g978">
</g><g
     id="g980">
</g><g
     id="g982">
</g><g
     id="g984">
</g><g
     id="g986">
</g><g
     id="g988">
</g><g
     id="g990">
</g></g></svg>