<?xml version="1.0" encoding="UTF-8" standalone="no"?>
<!-- Generator: Adobe Illustrator 19.0.0, SVG Export Plug-In . SVG Version: 6.00 Build 0)  -->

<svg
   xmlns:dc="http://purl.org/dc/elements/1.1/"
   xmlns:cc="http://creativecommons.org/ns#"
   xmlns:rdf="http://www.w3.org/1999/02/22-rdf-syntax-ns#"
   xmlns:svg="http://www.w3.org/2000/svg"
   xmlns="http://www.w3.org/2000/svg"
   xmlns:sodipodi="http://sodipodi.sourceforge.net/DTD/sodipodi-0.dtd"
   xmlns:inkscape="http://www.inkscape.org/namespaces/inkscape"
   version="1.1"
   id="Capa_1"
   x="0px"
   y="0px"
   viewBox="0 0 512 512"
   style="enable-background:new 0 0 512 512;"
   xml:space="preserve"
   sodipodi:docname="lessonicon2.svg"
   inkscape:version="0.92.4 (f8dce91, 2019-08-02)"><metadata
   id="metadata2176"><rdf:RDF><cc:Work
       rdf:about=""><dc:format>image/svg+xml</dc:format><dc:type
         rdf:resource="http://purl.org/dc/dcmitype/StillImage" /><dc:title></dc:title></cc:Work></rdf:RDF></metadata><defs
   id="defs2174" /><sodipodi:namedview
   pagecolor="#ffffff"
   bordercolor="#666666"
   borderopacity="1"
   objecttolerance="10"
   gridtolerance="10"
   guidetolerance="10"
   inkscape:pageopacity="0"
   inkscape:pageshadow="2"
   inkscape:window-width="1853"
   inkscape:window-height="1025"
   id="namedview2172"
   showgrid="false"
   inkscape:zoom="0.4609375"
   inkscape:cx="256"
   inkscape:cy="256"
   inkscape:window-x="67"
   inkscape:window-y="27"
   inkscape:window-maximized="1"
   inkscape:current-layer="Capa_1" />

































<g
   id="g2818"
   transform="translate(0.00250053,0.0025)"><rect
     id="rect2721"
     height="294.54901"
     width="146.554"
     style="fill:#92d8ff"
     y="95.978996"
     x="282.81601" /><rect
     id="rect2723"
     height="44.761002"
     width="146.554"
     style="fill:#ffa4ba"
     y="301.00601"
     x="282.81601" /><circle
     id="circle2725"
     r="43.129002"
     cy="165.37199"
     cx="43.129002"
     style="fill:#ffde55" /><path
     id="path2727"
     d="m 58.75,111.451 v 289.092 c 0,25.426 20.612,46.037 46.038,46.037 h 201.449 c 29.469,0 53.358,-23.89 53.358,-53.358 V 134.298 c 0,-19.189 15.7,-34.889 34.889,-34.889 v 0 c 19.189,0 34.889,15.7 34.889,34.889 v 256.229 c 22.25,0 40.286,-18.036 40.286,-40.286 V 129.749 c 0,-35.531 -28.804,-64.335 -64.335,-64.335 H 104.788 c -25.426,0 -46.038,20.612 -46.038,46.037 z"
     style="fill:#d7f3ff"
     inkscape:connector-curvature="0" /><path
     id="path2729"
     d="m 250.395,137.485 c 0.215,60.412 10.825,226.317 -23.825,309.096 h 79.667 c 29.469,0 53.358,-23.89 53.358,-53.358 V 134.298 c 0,-19.189 15.7,-34.889 34.889,-34.889 v 0 c 19.189,0 34.889,15.7 34.889,34.889 v 256.229 c 22.25,0 40.286,-18.036 40.286,-40.286 V 129.749 c 0,-35.531 -28.804,-64.335 -64.335,-64.335 H 311.02 c -14.462,0.582 -60.855,7.483 -60.625,72.071 z"
     style="fill:#bdebff"
     inkscape:connector-curvature="0" /><rect
     id="rect2731"
     height="55.764"
     width="110.065"
     style="fill:#acabb1"
     y="137.485"
     x="359.595" /><circle
     id="circle2733"
     r="43.129002"
     cy="165.37199"
     cx="468.866"
     style="fill:#ffde55" /><rect
     id="rect2735"
     height="44.761002"
     width="300.84399"
     style="fill:#ffd7e2"
     y="345.767"
     x="58.750999" /><g
     id="g2741">
	<path
   id="path2737"
   d="M 242.002,390.527 H 359.595 V 345.765 H 247.942 c -1.462,15.446 -3.402,30.507 -5.94,44.762 z"
   style="fill:#ffbdcd"
   inkscape:connector-curvature="0" />
	<rect
   id="rect2739"
   height="44.761002"
   width="40.290001"
   style="fill:#ffbdcd"
   y="301.00601"
   x="429.36899" />
</g><g
     id="g2749">
	<path
   id="path2743"
   d="m 292.263,253.347 c -4.268,0 -7.726,-3.459 -7.726,-7.726 v -12.827 c 0,-4.267 3.458,-7.726 7.726,-7.726 4.268,0 7.726,3.459 7.726,7.726 v 12.827 c 0.001,4.266 -3.458,7.726 -7.726,7.726 z"
   style="fill:#57565c"
   inkscape:connector-curvature="0" />
	<path
   id="path2745"
   d="m 126.082,253.347 c -4.268,0 -7.726,-3.459 -7.726,-7.726 v -12.827 c 0,-4.267 3.458,-7.726 7.726,-7.726 4.268,0 7.726,3.459 7.726,7.726 v 12.827 c 0,4.266 -3.458,7.726 -7.726,7.726 z"
   style="fill:#57565c"
   inkscape:connector-curvature="0" />
	<path
   id="path2747"
   d="m 209.173,261.437 c -10,0 -20,-3.236 -28.344,-9.708 -3.372,-2.616 -3.985,-7.469 -1.369,-10.841 2.614,-3.373 7.469,-3.986 10.84,-1.37 11.113,8.62 26.634,8.62 37.747,0 3.37,-2.616 8.225,-2.003 10.84,1.37 2.616,3.372 2.003,8.225 -1.369,10.841 -8.345,6.472 -18.345,9.708 -28.345,9.708 z"
   style="fill:#57565c"
   inkscape:connector-curvature="0" />
</g><g
     id="g2751">
</g><g
     id="g2753">
</g><g
     id="g2755">
</g><g
     id="g2757">
</g><g
     id="g2759">
</g><g
     id="g2761">
</g><g
     id="g2763">
</g><g
     id="g2765">
</g><g
     id="g2767">
</g><g
     id="g2769">
</g><g
     id="g2771">
</g><g
     id="g2773">
</g><g
     id="g2775">
</g><g
     id="g2777">
</g><g
     id="g2779">
</g></g></svg>