<?xml version="1.0" encoding="iso-8859-1"?>
<!-- Generator: Adobe Illustrator 19.0.0, SVG Export Plug-In . SVG Version: 6.00 Build 0)  -->
<svg version="1.1" id="Capa_1" xmlns="http://www.w3.org/2000/svg" xmlns:xlink="http://www.w3.org/1999/xlink" x="0px" y="0px"
	 viewBox="0 0 512 512" style="enable-background:new 0 0 512 512;" xml:space="preserve">
<path style="fill:#DD9F80;" d="M163.397,179.625v-69.894c0-31.59,25.701-57.291,57.291-57.291h70.624
	c31.591,0,57.291,25.701,57.291,57.291v69.894h32.611v-69.894c0-49.652-40.251-89.903-89.903-89.903h-70.624
	c-49.652,0-89.903,40.251-89.903,89.903v69.894H163.397z"/>
<g>
	<path style="fill:#C68D6D;" d="M155.808,47.503c-15.497,16.152-25.022,38.078-25.022,62.23v69.894h32.611v-69.894
		c0-18.196,8.537-34.426,21.805-44.928C177.152,56.732,167.071,50.698,155.808,47.503z"/>
	<path style="fill:#C68D6D;" d="M348.603,109.732v69.894h32.611v-69.894c0-24.152-9.526-46.077-25.022-62.23
		c-11.263,3.196-21.344,9.23-29.394,17.302C340.066,75.306,348.603,91.536,348.603,109.732z"/>
</g>
<g>
	<path style="fill:#EAEAEA;" d="M163.737,152.449H90.904v-39.974c0-14.545,11.79-26.336,26.336-26.336h20.162
		c14.545,0,26.336,11.79,26.336,26.336L163.737,152.449L163.737,152.449z"/>
	<path style="fill:#EAEAEA;" d="M421.096,152.449h-72.833v-39.974c0-14.545,11.79-26.336,26.336-26.336h20.162
		c14.545,0,26.336,11.79,26.336,26.336V152.449z"/>
</g>
<path style="fill:#EAB9A4;" d="M469.006,473.129H42.994C19.249,473.129,0,453.88,0,430.136V167.18
	c0-23.745,19.249-42.994,42.994-42.994h426.013c23.745,0,42.994,19.249,42.994,42.994v262.956
	C512,453.88,492.751,473.129,469.006,473.129z"/>
<path style="fill:#DD9F8A;" d="M0,167.18v262.956c0,23.745,19.249,42.994,42.994,42.994h113.061
	c10.986-53.01,21.691-130.635,12.969-207.764c-15.46-136.696,80.553-141.179,80.553-141.179H42.994
	C19.249,124.186,0,143.435,0,167.18z"/>
<path style="fill:#F9E491;" d="M0,167.18v22.108c7.177,4.215,15.533,6.644,24.459,6.644c26.716,0,48.374-21.658,48.374-48.373
	c0-8.478-2.187-16.443-6.018-23.372H42.994C19.249,124.186,0,143.435,0,167.18z"/>
<path style="fill:#FFEDB3;" d="M512,167.18v22.108c-7.177,4.215-15.533,6.644-24.459,6.644c-26.716,0-48.373-21.658-48.373-48.373
	c0-8.478,2.187-16.443,6.018-23.372h23.82C492.751,124.186,512,143.435,512,167.18z"/>
<path style="fill:#F9E491;" d="M0,430.136v-22.108c7.177-4.216,15.533-6.644,24.459-6.644c26.716,0,48.374,21.658,48.374,48.373
	c0,8.478-2.187,16.443-6.018,23.372H42.994C19.249,473.129,0,453.88,0,430.136z"/>
<path style="fill:#FFEDB3;" d="M512,430.136v-22.108c-7.177-4.216-15.533-6.644-24.459-6.644c-26.716,0-48.373,21.658-48.373,48.373
	c0,8.478,2.187,16.443,6.018,23.372h23.82C492.751,473.129,512,453.88,512,430.136z"/>
<path style="fill:#A0F0F2;" d="M90.225,492.17L90.225,492.17c-13.208,0-23.916-10.707-23.916-23.915V129.06
	c0-13.208,10.708-23.916,23.915-23.916l0,0c13.208,0,23.915,10.708,23.915,23.916v339.195
	C114.14,481.463,103.433,492.17,90.225,492.17z"/>
<path style="fill:#7DE2E2;" d="M95.093,468.255V129.06c0-7.805,3.74-14.734,9.524-19.099c-4.004-3.023-8.988-4.816-14.392-4.816
	c-13.208,0-23.916,10.708-23.916,23.916v339.195c0,13.208,10.707,23.915,23.916,23.915c5.403,0,10.386-1.794,14.392-4.816
	C98.832,482.989,95.093,476.06,95.093,468.255z"/>
<path style="fill:#A0F0F2;" d="M421.775,492.17L421.775,492.17c-13.208,0-23.916-10.707-23.916-23.915V129.06
	c0-13.208,10.707-23.916,23.915-23.916l0,0c13.208,0,23.915,10.708,23.915,23.916v339.195
	C445.69,481.463,434.983,492.17,421.775,492.17z"/>
<path style="fill:#7DE2E2;" d="M426.642,468.255V129.06c0-7.805,3.74-14.734,9.524-19.099c-4.004-3.023-8.988-4.816-14.392-4.816
	c-13.208,0-23.916,10.708-23.916,23.916v339.195c0,13.208,10.707,23.915,23.916,23.915c5.403,0,10.386-1.794,14.392-4.816
	C430.382,482.989,426.642,476.06,426.642,468.255z"/>
<path style="fill:#EAEAEA;" d="M109.509,325.834H70.94c-10.212,0-18.491-8.279-18.491-18.491v-42.917
	c0-10.212,8.279-18.491,18.491-18.491h38.569c10.212,0,18.491,8.279,18.491,18.491v42.917
	C128,317.555,119.721,325.834,109.509,325.834z"/>
<path style="fill:#D8D7DA;" d="M84.411,307.343v-42.917c0-10.212,8.279-18.491,18.491-18.491H70.94
	c-10.212,0-18.491,8.279-18.491,18.491v42.917c0,10.212,8.279,18.491,18.491,18.491h31.961
	C92.69,325.834,84.411,317.555,84.411,307.343z"/>
<path style="fill:#EAEAEA;" d="M441.06,325.834h-38.569c-10.212,0-18.491-8.279-18.491-18.491v-42.917
	c0-10.212,8.279-18.491,18.491-18.491h38.569c10.212,0,18.491,8.279,18.491,18.491v42.917
	C459.549,317.555,451.272,325.834,441.06,325.834z"/>
<path style="fill:#D8D7DA;" d="M415.961,307.343v-42.917c0-10.212,8.279-18.491,18.491-18.491h-31.961
	c-10.212,0-18.491,8.279-18.491,18.491v42.917c0,10.212,8.279,18.491,18.491,18.491h31.961
	C424.24,325.834,415.961,317.555,415.961,307.343z"/>
<g>
	<path style="fill:#57565C;" d="M255.999,270.038L255.999,270.038c-15.988,0-28.948-12.961-28.948-28.948v-21.047
		c0-4.365,3.538-7.903,7.903-7.903h42.092c4.365,0,7.903,3.538,7.903,7.903v21.047C284.947,257.078,271.988,270.038,255.999,270.038
		z"/>
	<path style="fill:#57565C;" d="M339.091,227.592c-4.268,0-7.726-3.459-7.726-7.726v-12.827c0-4.267,3.458-7.726,7.726-7.726
		c4.267,0,7.726,3.459,7.726,7.726v12.827C346.818,224.132,343.358,227.592,339.091,227.592z"/>
	<path style="fill:#57565C;" d="M172.909,227.592c-4.268,0-7.726-3.459-7.726-7.726v-12.827c0-4.267,3.458-7.726,7.726-7.726
		c4.268,0,7.726,3.459,7.726,7.726v12.827C180.635,224.132,177.177,227.592,172.909,227.592z"/>
</g>
<g>
</g>
<g>
</g>
<g>
</g>
<g>
</g>
<g>
</g>
<g>
</g>
<g>
</g>
<g>
</g>
<g>
</g>
<g>
</g>
<g>
</g>
<g>
</g>
<g>
</g>
<g>
</g>
<g>
</g>
</svg>
