<?xml version="1.0" encoding="UTF-8" standalone="no"?>
<!-- Generator: Adobe Illustrator 19.0.0, SVG Export Plug-In . SVG Version: 6.00 Build 0)  -->

<svg
   xmlns:dc="http://purl.org/dc/elements/1.1/"
   xmlns:cc="http://creativecommons.org/ns#"
   xmlns:rdf="http://www.w3.org/1999/02/22-rdf-syntax-ns#"
   xmlns:svg="http://www.w3.org/2000/svg"
   xmlns="http://www.w3.org/2000/svg"
   xmlns:sodipodi="http://sodipodi.sourceforge.net/DTD/sodipodi-0.dtd"
   xmlns:inkscape="http://www.inkscape.org/namespaces/inkscape"
   version="1.1"
   id="Capa_1"
   x="0px"
   y="0px"
   viewBox="0 0 511.999 511.999"
   style="enable-background:new 0 0 511.999 511.999;"
   xml:space="preserve"
   sodipodi:docname="lesson.svg"
   inkscape:version="0.92.4 (f8dce91, 2019-08-02)"><metadata
   id="metadata75"><rdf:RDF><cc:Work
       rdf:about=""><dc:format>image/svg+xml</dc:format><dc:type
         rdf:resource="http://purl.org/dc/dcmitype/StillImage" /></cc:Work></rdf:RDF></metadata><defs
   id="defs73" /><sodipodi:namedview
   pagecolor="#ffffff"
   bordercolor="#666666"
   borderopacity="1"
   objecttolerance="10"
   gridtolerance="10"
   guidetolerance="10"
   inkscape:pageopacity="0"
   inkscape:pageshadow="2"
   inkscape:window-width="1853"
   inkscape:window-height="1025"
   id="namedview71"
   showgrid="false"
   inkscape:zoom="0.46093841"
   inkscape:cx="-208.27077"
   inkscape:cy="603.11748"
   inkscape:window-x="67"
   inkscape:window-y="27"
   inkscape:window-maximized="1"
   inkscape:current-layer="Capa_1" />






























<path
   style="opacity:1;fill:#dae1e7;fill-opacity:1;stroke:none;stroke-width:1.80132902;stroke-miterlimit:4;stroke-dasharray:none;stroke-opacity:1"
   id="path2186"
   sodipodi:type="arc"
   sodipodi:cx="255.98085"
   sodipodi:cy="255.9995"
   sodipodi:rx="242.98558"
   sodipodi:ry="242.98558"
   sodipodi:start="3.479279"
   sodipodi:end="3.1240695"
   sodipodi:open="true"
   d="M 26.718193,175.49716 A 242.98558,242.98558 0 0 1 315.83366,20.500805 242.98558,242.98558 0 0 1 495.85969,294.7311 242.98558,242.98558 0 0 1 238.67569,498.36807 242.98558,242.98558 0 0 1 13.032575,260.25715" /><g
   id="g3697"
   transform="matrix(1.0500758,0,0,1.0500758,-12.81938,-26.81938)"><g
     transform="matrix(0.72457697,0,0,0.72457697,70.507775,70.507688)"
     id="g3671"><path
       inkscape:connector-curvature="0"
       style="fill:#ae97fb;fill-opacity:1"
       d="m 230.51,332.373 -111.819,-76.02 c -8.374,-3.905 -18.28,-0.288 -22.169,8.07 L 18.44,431.87 c -6.305,13.497 7.023,27.81 20.821,22.727 l 69.204,-25.193 5.192,2.421 25.193,69.204 c 5.049,13.899 24.496,14.857 30.793,1.341 l 68.938,-147.831 c 3.899,-8.344 0.282,-18.272 -8.071,-22.166 z"
       id="path2" /><path
       inkscape:connector-curvature="0"
       style="fill:#9a7ffa;fill-opacity:1"
       d="M 493.564,431.87 415.48,264.423 c -3.899,-8.347 -13.805,-11.97 -22.169,-8.07 l -111.819,76.02 c -8.353,3.894 -11.97,13.822 -8.07,22.169 l 68.938,147.831 c 6.284,13.487 25.732,12.587 30.793,-1.341 l 25.193,-69.204 5.192,-2.421 69.204,25.193 c 13.888,5.096 27.097,-9.296 20.822,-22.73 z"
       id="path4" /><path
       inkscape:connector-curvature="0"
       style="fill:#f5dc48;fill-opacity:1"
       d="M 256.001,367.032 C 154.815,367.032 72.485,284.707 72.485,183.516 72.485,82.325 154.815,0 256.001,0 c 101.186,0 183.516,82.325 183.516,183.516 0,101.191 -82.329,183.516 -183.516,183.516 z"
       id="path6" /><path
       inkscape:connector-curvature="0"
       style="fill:#edba43;fill-opacity:1"
       d="M 439.517,183.516 C 439.517,82.325 357.188,0 256.001,0 v 367.032 c 101.187,0 183.516,-82.325 183.516,-183.516 z"
       id="path8" /><path
       inkscape:connector-curvature="0"
       style="fill:#e9b147;fill-opacity:1"
       d="m 256.001,33.367 c -82.797,0 -150.15,67.358 -150.15,150.15 0,82.792 67.353,150.15 150.15,150.15 82.797,0 150.15,-67.358 150.15,-150.15 0,-82.792 -67.352,-150.15 -150.15,-150.15 z"
       id="path10" /><path
       inkscape:connector-curvature="0"
       style="fill:#df9642;fill-opacity:1"
       d="m 406.151,183.516 c 0,-82.791 -67.353,-150.15 -150.15,-150.15 v 300.299 c 82.798,10e-4 150.15,-67.358 150.15,-150.149 z"
       id="path12" /><path
       inkscape:connector-curvature="0"
       style="fill:#f5dc48;fill-opacity:1"
       d="m 336.081,141.585 -45.045,-6.562 -20.131,-40.707 c -3.003,-6.228 -8.898,-9.343 -14.904,-9.343 -6.006,0 -11.901,3.114 -14.904,9.343 l -20.131,40.707 -45.045,6.562 c -13.68,2.002 -19.019,18.796 -9.231,28.473 l 32.589,31.698 -7.674,44.822 c -2.336,13.569 11.901,24.024 24.135,17.573 l 40.262,-21.132 40.262,21.132 c 12.123,6.34 26.582,-3.893 24.135,-17.573 l -7.674,-44.822 32.589,-31.698 c 9.897,-9.676 4.336,-26.471 -9.233,-28.473 z"
       id="path14" /><path
       inkscape:connector-curvature="0"
       style="fill:#edba43;fill-opacity:1"
       d="m 345.312,170.058 -32.589,31.698 7.674,44.822 c 2.447,13.68 -12.012,23.913 -24.135,17.573 L 256,243.02 V 84.974 c 6.006,0 11.901,3.114 14.904,9.343 l 20.131,40.707 45.045,6.562 c 13.57,2.001 19.131,18.796 9.232,28.472 z"
       id="path16" /><g
       id="g18">
</g><g
       id="g20">
</g><g
       id="g22">
</g><g
       id="g24">
</g><g
       id="g26">
</g><g
       id="g28">
</g><g
       id="g30">
</g><g
       id="g32">
</g><g
       id="g34">
</g><g
       id="g36">
</g><g
       id="g38">
</g><g
       id="g40">
</g><g
       id="g42">
</g><g
       id="g44">
</g><g
       id="g46">
</g></g></g></svg>