<?xml version="1.0" encoding="UTF-8" standalone="no"?>
<!-- Generator: Adobe Illustrator 19.0.0, SVG Export Plug-In . SVG Version: 6.00 Build 0)  -->

<svg
   xmlns:dc="http://purl.org/dc/elements/1.1/"
   xmlns:cc="http://creativecommons.org/ns#"
   xmlns:rdf="http://www.w3.org/1999/02/22-rdf-syntax-ns#"
   xmlns:svg="http://www.w3.org/2000/svg"
   xmlns="http://www.w3.org/2000/svg"
   xmlns:sodipodi="http://sodipodi.sourceforge.net/DTD/sodipodi-0.dtd"
   xmlns:inkscape="http://www.inkscape.org/namespaces/inkscape"
   version="1.1"
   id="Capa_1"
   x="0px"
   y="0px"
   viewBox="0 0 511.999 511.999"
   style="enable-background:new 0 0 511.999 511.999;"
   xml:space="preserve"
   sodipodi:docname="level.svg"
   inkscape:version="0.92.4 (f8dce91, 2019-08-02)"><metadata
   id="metadata75"><rdf:RDF><cc:Work
       rdf:about=""><dc:format>image/svg+xml</dc:format><dc:type
         rdf:resource="http://purl.org/dc/dcmitype/StillImage" /></cc:Work></rdf:RDF></metadata><defs
   id="defs73" /><sodipodi:namedview
   pagecolor="#ffffff"
   bordercolor="#666666"
   borderopacity="1"
   objecttolerance="10"
   gridtolerance="10"
   guidetolerance="10"
   inkscape:pageopacity="0"
   inkscape:pageshadow="2"
   inkscape:window-width="1853"
   inkscape:window-height="1025"
   id="namedview71"
   showgrid="false"
   inkscape:zoom="0.46093841"
   inkscape:cx="-468.60924"
   inkscape:cy="776.67646"
   inkscape:window-x="67"
   inkscape:window-y="27"
   inkscape:window-maximized="1"
   inkscape:current-layer="Capa_1" />






























<path
   style="opacity:1;fill:#dae1e7;fill-opacity:1;stroke:none;stroke-width:1.80132902;stroke-miterlimit:4;stroke-dasharray:none;stroke-opacity:1"
   id="path2186"
   sodipodi:type="arc"
   sodipodi:cx="255.98085"
   sodipodi:cy="255.9995"
   sodipodi:rx="242.98558"
   sodipodi:ry="242.98558"
   sodipodi:start="3.479279"
   sodipodi:end="3.1240695"
   sodipodi:open="true"
   d="M 26.718193,175.49716 A 242.98558,242.98558 0 0 1 315.83366,20.500805 242.98558,242.98558 0 0 1 495.85969,294.7311 242.98558,242.98558 0 0 1 238.67569,498.36807 242.98558,242.98558 0 0 1 13.032575,260.25715" /><g
   id="g2907"
   transform="matrix(0.73408711,0,0,0.73408711,68.073196,80.073196)"><path
     id="path988"
     d="m 339.511,428.522 c 0,9.238 -7.457,16.696 -16.696,16.696 H 189.25 c -9.238,0 -16.696,-7.457 -16.696,-16.696 0,-9.239 7.457,-16.696 16.696,-16.696 6.122,0 16.696,-15.805 16.696,-27.826 v -70.567 c 0,-9.238 7.457,-16.696 16.696,-16.696 h 66.783 c 9.238,0 16.696,7.457 16.696,16.696 V 384 c 0,12.021 10.463,27.826 16.696,27.826 9.235,0 16.694,7.457 16.694,16.696 z"
     style="fill:#e9b147;fill-opacity:1"
     inkscape:connector-curvature="0" /><path
     id="path990"
     d="m 339.511,428.522 c 0,9.238 -7.457,16.696 -16.696,16.696 h -67.673 v -148.48 h 34.282 c 9.238,0 16.696,7.457 16.696,16.696 V 384 c 0,12.021 10.463,27.826 16.696,27.826 9.236,0 16.695,7.457 16.695,16.696 z"
     style="fill:#df9642;fill-opacity:1"
     inkscape:connector-curvature="0" /><path
     id="path992"
     d="M 117.152,252.456 C 49.359,223.5 5.565,157.174 5.565,83.478 5.565,55.859 28.033,33.391 55.652,33.391 H 92.75 c 9.217,0 16.696,7.479 16.696,16.696 0,9.217 -7.479,16.696 -16.696,16.696 H 55.652 c -9.206,0 -16.696,7.49 -16.696,16.696 0,60.294 35.837,114.576 91.304,138.261 8.489,3.631 12.424,13.434 8.804,21.914 -3.676,8.588 -13.573,12.376 -21.912,8.802 z"
     style="fill:#e9b147;fill-opacity:1"
     inkscape:connector-curvature="0" /><path
     id="path994"
     d="m 372.935,243.641 c -3.62,-8.478 0.326,-18.283 8.804,-21.914 55.467,-23.683 91.304,-77.944 91.304,-138.249 0,-9.206 -7.49,-16.696 -16.696,-16.696 H 419.25 c -9.217,0 -16.696,-7.479 -16.696,-16.696 0,-9.217 7.479,-16.696 16.696,-16.696 h 37.098 c 27.619,0 50.087,22.468 50.087,50.087 0,73.696 -43.804,140.022 -111.587,168.968 -8.379,3.574 -18.251,-0.249 -21.913,-8.804 z"
     style="fill:#df9642;fill-opacity:1"
     inkscape:connector-curvature="0" /><path
     id="path996"
     d="M 434.563,5.565 C 431.336,2.003 426.883,0 422.097,0 H 88.184 C 83.398,0 78.946,2.003 75.718,5.565 72.601,9.127 71.043,13.802 71.6,18.588 l 18.588,167.736 c 9.35,84.146 80.25,147.59 164.953,147.59 42.296,0 81.252,-15.805 110.748,-42.296 29.496,-26.268 49.53,-63.222 54.205,-105.294 L 438.682,18.588 c 0.556,-4.786 -1.001,-9.461 -4.119,-13.023 z"
     style="fill:#f5dc48;fill-opacity:1"
     inkscape:connector-curvature="0" /><path
     id="path998"
     d="m 438.682,18.588 -18.588,167.736 c -4.675,42.073 -24.71,79.026 -54.205,105.294 -29.496,26.489 -68.452,42.296 -110.748,42.296 V 0 h 166.957 c 4.786,0 9.238,2.003 12.466,5.565 3.117,3.562 4.674,8.237 4.118,13.023 z"
     style="fill:#edba43;fill-opacity:1"
     inkscape:connector-curvature="0" /><path
     id="path1000"
     d="m 321.924,125.885 -35.172,-5.12 -15.805,-31.944 c -3.228,-6.456 -9.572,-9.572 -15.805,-9.238 -5.677,0.334 -11.242,3.339 -14.136,9.238 l -15.694,31.944 -35.172,5.12 c -13.69,2.003 -19.256,18.81 -9.35,28.494 l 25.489,24.821 -6.01,35.061 c -2.337,13.579 12.132,24.042 24.264,17.586 l 30.609,-16.584 32.39,16.584 c 12.021,6.344 26.49,-3.896 24.153,-17.586 l -6.01,-35.061 25.489,-24.821 c 9.904,-9.683 4.45,-26.49 -9.24,-28.494 z"
     style="fill:#e9b147;fill-opacity:1"
     inkscape:connector-curvature="0" /><path
     id="path1002"
     d="m 331.163,154.379 -25.489,24.821 6.01,35.061 c 2.337,13.69 -12.132,23.93 -24.153,17.586 l -32.39,-16.584 V 79.583 c 6.233,-0.334 12.577,2.783 15.805,9.238 l 15.805,31.944 35.172,5.12 c 13.691,2.004 19.145,18.811 9.24,28.494 z"
     style="fill:#df9642;fill-opacity:1"
     inkscape:connector-curvature="0" /><path
     id="path1004"
     d="M 356.174,512 H 155.826 c -9.217,0 -16.696,-7.479 -16.696,-16.696 v -33.391 c 0,-27.619 22.468,-50.087 50.087,-50.087 h 133.565 c 27.619,0 50.087,22.468 50.087,50.087 v 33.391 C 372.87,504.521 365.391,512 356.174,512 Z"
     style="fill:#895d5c;fill-opacity:1"
     inkscape:connector-curvature="0" /><path
     id="path1006"
     d="M 322.783,411.826 H 255.142 V 512 h 101.032 c 9.217,0 16.696,-7.479 16.696,-16.696 v -33.391 c 0,-27.619 -22.468,-50.087 -50.087,-50.087 z"
     style="fill:#864e4e;fill-opacity:1"
     inkscape:connector-curvature="0" /><g
     id="g1008">
</g><g
     id="g1010">
</g><g
     id="g1012">
</g><g
     id="g1014">
</g><g
     id="g1016">
</g><g
     id="g1018">
</g><g
     id="g1020">
</g><g
     id="g1022">
</g><g
     id="g1024">
</g><g
     id="g1026">
</g><g
     id="g1028">
</g><g
     id="g1030">
</g><g
     id="g1032">
</g><g
     id="g1034">
</g><g
     id="g1036">
</g></g></svg>