<?xml version="1.0" encoding="UTF-8" standalone="no"?>
<!-- Generator: Adobe Illustrator 19.0.0, SVG Export Plug-In . SVG Version: 6.00 Build 0)  -->

<svg
   xmlns:dc="http://purl.org/dc/elements/1.1/"
   xmlns:cc="http://creativecommons.org/ns#"
   xmlns:rdf="http://www.w3.org/1999/02/22-rdf-syntax-ns#"
   xmlns:svg="http://www.w3.org/2000/svg"
   xmlns="http://www.w3.org/2000/svg"
   xmlns:sodipodi="http://sodipodi.sourceforge.net/DTD/sodipodi-0.dtd"
   xmlns:inkscape="http://www.inkscape.org/namespaces/inkscape"
   version="1.1"
   id="Capa_1"
   x="0px"
   y="0px"
   viewBox="0 0 511.999 511.999"
   style="enable-background:new 0 0 511.999 511.999;"
   xml:space="preserve"
   sodipodi:docname="logo.svg"
   inkscape:version="0.92.4 (f8dce91, 2019-08-02)"><metadata
   id="metadata75"><rdf:RDF><cc:Work
       rdf:about=""><dc:format>image/svg+xml</dc:format><dc:type
         rdf:resource="http://purl.org/dc/dcmitype/StillImage" /></cc:Work></rdf:RDF></metadata><defs
   id="defs73" /><sodipodi:namedview
   pagecolor="#ffffff"
   bordercolor="#666666"
   borderopacity="1"
   objecttolerance="10"
   gridtolerance="10"
   guidetolerance="10"
   inkscape:pageopacity="0"
   inkscape:pageshadow="2"
   inkscape:window-width="1853"
   inkscape:window-height="1025"
   id="namedview71"
   showgrid="false"
   inkscape:zoom="0.46093841"
   inkscape:cx="67.254112"
   inkscape:cy="516.33797"
   inkscape:window-x="67"
   inkscape:window-y="27"
   inkscape:window-maximized="1"
   inkscape:current-layer="Capa_1" />














<rect
   style="opacity:1;fill:#ded6fc;fill-opacity:1;stroke:#8766fa;stroke-width:4.612;stroke-miterlimit:4;stroke-dasharray:none;stroke-opacity:1"
   id="rect1740"
   width="477.2872"
   height="104.13539"
   x="17.355898"
   y="390.50772"
   ry="52.067696" /><g
   id="g1715"
   transform="matrix(0.68644108,0,0,0.68644108,93.222462,9.186208)"><path
     id="path2"
     d="m 435.295,280.814 c 15.774,0 28.072,5.464 32.9,14.617 5.152,9.768 1.013,21.415 -1.912,27.489 -6.467,13.428 -19.226,25.902 -35.005,34.223 -12.687,6.691 -26.128,10.228 -38.87,10.228 -15.778,0 -28.08,-5.464 -32.906,-14.617 -5.152,-9.768 -1.013,-21.415 1.912,-27.489 6.467,-13.428 19.226,-25.902 35.005,-34.223 12.686,-6.69 26.127,-10.227 38.873,-10.228 h 0.003 v 0 m -0.008,-30.906 c -17.077,0.001 -35.624,4.481 -53.287,13.796 -45.113,23.791 -67.424,70.114 -49.836,103.465 10.702,20.292 33.704,31.105 60.243,31.105 17.077,0 35.624,-4.481 53.287,-13.796 45.113,-23.791 67.424,-70.114 49.836,-103.465 -10.701,-20.292 -33.703,-31.107 -60.243,-31.105 z"
     style="fill:#8766fa;fill-opacity:1"
     inkscape:connector-curvature="0" /><path
     id="path4"
     d="m 382,263.705 c -45.113,23.791 -67.424,70.114 -49.836,103.465 10.702,20.292 33.704,31.105 60.243,31.105 7.576,0 15.442,-0.887 23.391,-2.682 11.147,-14.27 19.929,-29.773 26.839,-45.53 -3.558,2.591 -7.361,4.969 -11.361,7.078 -12.687,6.691 -26.128,10.228 -38.87,10.228 -15.778,0 -28.08,-5.464 -32.906,-14.617 -5.152,-9.768 -1.013,-21.415 1.912,-27.489 6.467,-13.428 19.226,-25.902 35.005,-34.223 12.686,-6.69 26.127,-10.227 38.873,-10.228 h 0.003 10e-4 c 10.793,0 19.956,2.561 26.215,7.108 2.222,-11.635 3.686,-22.599 4.639,-32.405 -9.237,-3.702 -19.735,-5.609 -30.86,-5.608 -17.078,0.002 -35.624,4.482 -53.288,13.798 z"
     style="fill:#9b7ffa;fill-opacity:1"
     inkscape:connector-curvature="0" /><path
     id="path6"
     d="M 390.499,114.787 C 381.583,130.075 295.281,249.579 279.992,240.663 264.704,231.747 326.218,97.788 335.134,82.5 344.05,67.212 363.671,62.046 378.96,70.962 c 15.289,8.915 20.455,28.537 11.539,43.825 z"
     style="fill:#d8d7da"
     inkscape:connector-curvature="0" /><path
     id="path8"
     d="m 367.408,147.93 c -27.515,-10.852 -36.127,-33.868 -37.484,-55.314 -17.274,35.324 -63.397,140.192 -49.93,148.046 10.925,6.372 58.115,-52.838 87.414,-92.732 z"
     style="fill:#c6c5ca"
     inkscape:connector-curvature="0" /><path
     id="path10"
     d="m 235,235.509 c -12.852,0 -23.269,-10.418 -23.269,-23.269 0,-47.242 -11.234,-59.057 -23.127,-71.567 -10.72,-11.274 -24.061,-25.306 -26.447,-54.734 -4.043,-49.879 32.419,-77.088 64.874,-85.234 12.47,-3.129 25.106,4.441 28.233,16.905 3.129,12.465 -4.44,25.106 -16.905,28.233 -27.937,7.011 -30.672,25.774 -29.814,36.334 1.057,13.039 5.046,17.235 13.787,26.428 18.938,19.92 35.938,42.834 35.938,103.633 -0.002,12.852 -10.419,23.271 -23.27,23.271 z"
     style="fill:#e5e5e5;fill-opacity:1"
     inkscape:connector-curvature="0" /><path
     id="path12"
     d="M 367.381,169.938 H 72.883 c -35.987,0 -64.396,30.331 -62.32,66.258 3.081,53.317 18.984,127.974 77.142,181.834 26.61,24.643 61.79,37.942 98.059,37.942 h 68.732 c 36.269,0 71.448,-13.299 98.058,-37.942 58.401,-54.085 74.193,-129.139 77.18,-182.5 1.997,-35.666 -26.632,-65.592 -62.353,-65.592 z"
     style="fill:#c2b0ff;fill-opacity:1"
     inkscape:connector-curvature="0" /><path
     id="path14"
     d="m 139.589,255.999 c -0.98,-83.307 78.222,-85.996 85.928,-86.061 H 72.883 c -35.987,0 -64.396,30.331 -62.32,66.258 3.081,53.317 18.984,127.974 77.142,181.834 26.61,24.643 61.79,37.942 98.059,37.942 h 68.732 c 5.237,0 10.451,-0.286 15.622,-0.835 C 251.844,301.62 140.555,338.04 139.589,255.999 Z"
     style="fill:#9b7ffa;fill-opacity:1"
     inkscape:connector-curvature="0" /><path
     id="path20"
     d="M 401.639,433.157 H 38.651 c -17.485,0 -25.844,24.394 -12.956,37.806 l 20.743,21.583 c 12.024,12.512 27.745,19.453 44.059,19.453 h 259.297 c 16.313,0 32.033,-6.941 44.059,-19.454 l 20.742,-21.583 c 12.889,-13.411 4.529,-37.805 -12.956,-37.805 z"
     style="fill:#ded6fc;fill-opacity:1"
     inkscape:connector-curvature="0" /><path
     id="path22"
     d="m 141.766,470.963 c -12.89,-13.412 -4.53,-37.806 12.956,-37.806 H 38.65 c -17.485,0 -25.844,24.394 -12.956,37.806 l 20.743,21.583 c 12.025,12.512 27.746,19.453 44.06,19.453 h 116.07 c -16.313,0 -32.033,-6.941 -44.059,-19.454 z"
     style="fill:#c2b0ff;fill-opacity:1"
     inkscape:connector-curvature="0" /><path
     id="path24"
     d="m 84.424,109.275 c -6.768,-23.798 -5.18,-50.106 4.594,-76.079 4.527,-12.027 17.946,-18.11 29.974,-13.583 12.027,4.527 18.109,17.947 13.583,29.974 -6.327,16.814 -7.467,32.612 -3.388,46.958 3.515,12.361 -3.742,24.943 -16.016,28.746 -16.76,5.194 -25.837,-5.782 -28.747,-16.016 z"
     style="fill:#e5e5e5;fill-opacity:1"
     inkscape:connector-curvature="0" /><path
     id="path26"
     d="m 220.144,323.276 v 0 c -15.988,0 -28.948,-12.961 -28.948,-28.948 v -21.047 c 0,-4.365 3.538,-7.903 7.903,-7.903 h 42.092 c 4.365,0 7.903,3.538 7.903,7.903 v 21.047 c -0.002,15.987 -12.961,28.948 -28.95,28.948 z"
     style="fill:#57565c"
     inkscape:connector-curvature="0" /><g
     id="g32">
	<ellipse
   id="ellipse28"
   ry="24.589001"
   rx="30.878"
   cy="294.32199"
   cx="123.312"
   style="fill:#ffa6bb" />
	<ellipse
   id="ellipse30"
   ry="24.589001"
   rx="30.878"
   cy="294.32199"
   cx="316.97601"
   style="fill:#ffa6bb" />
</g><g
     id="g38">
	<path
   id="path34"
   d="m 303.236,280.829 c -4.268,0 -7.726,-3.459 -7.726,-7.726 v -12.827 c 0,-4.267 3.458,-7.726 7.726,-7.726 4.268,0 7.726,3.459 7.726,7.726 v 12.827 c 0,4.267 -3.458,7.726 -7.726,7.726 z"
   style="fill:#57565c"
   inkscape:connector-curvature="0" />
	<path
   id="path36"
   d="m 137.054,280.829 c -4.268,0 -7.726,-3.459 -7.726,-7.726 v -12.827 c 0,-4.267 3.458,-7.726 7.726,-7.726 4.268,0 7.726,3.459 7.726,7.726 v 12.827 c 0,4.267 -3.459,7.726 -7.726,7.726 z"
   style="fill:#57565c"
   inkscape:connector-curvature="0" />
</g></g>
<g
   id="g40">
</g>
<g
   id="g42">
</g>
<g
   id="g44">
</g>
<g
   id="g46">
</g>
<g
   id="g48">
</g>
<g
   id="g50">
</g>
<g
   id="g52">
</g>
<g
   id="g54">
</g>
<g
   id="g56">
</g>
<g
   id="g58">
</g>
<g
   id="g60">
</g>
<g
   id="g62">
</g>
<g
   id="g64">
</g>
<g
   id="g66">
</g>
<g
   id="g68">
</g>
<g
   aria-label="Qahwa quiz"
   style="font-style:normal;font-weight:normal;font-size:40px;line-height:1.25;font-family:sans-serif;letter-spacing:0px;word-spacing:0px;fill:#8766fa;fill-opacity:1;stroke:#8766fa;stroke-opacity:0.628169;stroke-width:1.00011285;stroke-miterlimit:4;stroke-dasharray:none"
   id="text1719"
   transform="matrix(1.8767882,0,0,1.8767882,-224.45734,-414.28506)"><g
     id="g1751"
     style="fill:#8766fa;fill-opacity:1;stroke:#8766fa;stroke-opacity:0.628169;stroke-width:1.00011285;stroke-miterlimit:4;stroke-dasharray:none"><path
       inkscape:connector-curvature="0"
       id="path1721"
       style="font-style:normal;font-variant:normal;font-weight:normal;font-stretch:normal;font-family:'DIN Round Pro';-inkscape-font-specification:'DIN Round Pro';fill:#8766fa;fill-opacity:1;stroke:#8766fa;stroke-opacity:0.628169;stroke-width:1.00011285;stroke-miterlimit:4;stroke-dasharray:none"
       d="m 159.1895,465.94925 q -0.82,-0.82 -1.36,-1.72 -0.54,-0.92 -0.84,-1.78 -0.3,-0.86 -0.46,-2.26 -0.14,-1.4 -0.18,-2.54 -0.02,-1.14 -0.02,-3.28 0,-2.14 0.02,-3.28 0.04,-1.14 0.18,-2.54 0.16,-1.4 0.46,-2.26 0.3,-0.86 0.84,-1.76 0.54,-0.92 1.36,-1.74 2.9,-2.9 7.38,-2.9 4.46,0 7.36,2.9 0.82,0.82 1.36,1.74 0.54,0.9 0.84,1.78 0.32,0.86 0.46,2.24 0.16,1.38 0.18,2.54 0.04,1.16 0.04,3.28 0,4.4 -0.32,6.56 -0.3,2.14 -1.52,3.82 l 1.44,1.44 q 0.76,0.76 0.9,1.26 0.22,0.86 -0.48,1.56 -0.7,0.7 -1.56,0.48 -0.5,-0.14 -1.26,-0.9 l -1.48,-1.48 q -2.52,1.74 -5.96,1.74 -4.48,0 -7.38,-2.9 z m 8.38,-3.82 q -0.78,-0.74 -0.92,-1.26 -0.22,-0.86 0.48,-1.56 0.7,-0.7 1.56,-0.48 0.5,0.14 1.26,0.9 l 1.7,1.7 q 0.52,-1.04 0.68,-2.56 0.16,-1.52 0.16,-4.5 0,-4.28 -0.32,-6 -0.32,-1.74 -1.36,-2.86 -1.68,-1.78 -4.24,-1.78 -2.58,0 -4.24,1.78 -1.04,1.1 -1.36,2.84 -0.32,1.72 -0.32,6.02 0,4.3 0.32,6.02 0.32,1.72 1.36,2.82 1.68,1.8 4.24,1.8 1.68,0 2.92,-0.94 z" /><path
       inkscape:connector-curvature="0"
       id="path1723"
       style="font-style:normal;font-variant:normal;font-weight:normal;font-stretch:normal;font-family:'DIN Round Pro';-inkscape-font-specification:'DIN Round Pro';fill:#8766fa;fill-opacity:1;stroke:#8766fa;stroke-opacity:0.628169;stroke-width:1.00011285;stroke-miterlimit:4;stroke-dasharray:none"
       d="m 181.14888,462.64925 q 0,-2.64 1.82,-4.26 1.84,-1.62 5.2,-1.62 h 5.38 v -1.26 q 0,-2.02 -1.02,-2.98 -1,-0.98 -3.22,-0.98 -2.1,0 -3.88,1.36 -0.7,0.54 -1.48,0.54 -0.74,0 -1.18,-0.54 -0.48,-0.54 -0.48,-1.26 0,-1.24 1.9,-2.34 2.12,-1.22 5.16,-1.22 4.08,0 6.18,1.78 2.12,1.76 2.12,5.2 v 10.92 q 0,1.3 -0.3,1.84 -0.5,0.94 -1.74,0.94 -0.94,0 -1.48,-0.58 -0.42,-0.48 -0.46,-1.46 -1.2,1.18 -2.4,1.64 -1.18,0.46 -3.04,0.46 -3.68,0 -5.46,-1.84 -1.62,-1.66 -1.62,-4.34 z m 3.98,-0.06 q 0,2.86 3.82,2.86 1.24,0 2.1,-0.22 0.88,-0.24 1.6,-0.94 0.9,-0.84 0.9,-3.02 v -1.6 h -4.8 q -1.78,0 -2.7,0.76 -0.92,0.74 -0.92,2.16 z" /><path
       inkscape:connector-curvature="0"
       id="path1725"
       style="font-style:normal;font-variant:normal;font-weight:normal;font-stretch:normal;font-family:'DIN Round Pro';-inkscape-font-specification:'DIN Round Pro';fill:#8766fa;fill-opacity:1;stroke:#8766fa;stroke-opacity:0.628169;stroke-width:1.00011285;stroke-miterlimit:4;stroke-dasharray:none"
       d="m 207.98075,456.24925 v 9.74 q 0,1.22 -0.3,1.82 -0.5,0.96 -1.74,0.96 -1.24,0 -1.74,-0.96 -0.3,-0.6 -0.3,-1.82 v -23.24 q 0,-1.22 0.3,-1.82 0.5,-0.96 1.74,-0.96 1.24,0 1.74,0.96 0.3,0.6 0.3,1.82 v 7.62 q 2.06,-2.28 5.32,-2.28 3.12,0 5,1.84 2.06,2 2.06,5.72 v 10.34 q 0,1.22 -0.3,1.82 -0.5,0.96 -1.74,0.96 -1.24,0 -1.74,-0.96 -0.3,-0.6 -0.3,-1.82 v -9.74 q 0,-2.26 -1.14,-3.36 -1.12,-1.12 -2.98,-1.12 -1.84,0 -3.02,1.12 -1.16,1.12 -1.16,3.36 z" /><path
       inkscape:connector-curvature="0"
       id="path1727"
       style="font-style:normal;font-variant:normal;font-weight:normal;font-stretch:normal;font-family:'DIN Round Pro';-inkscape-font-specification:'DIN Round Pro';fill:#8766fa;fill-opacity:1;stroke:#8766fa;stroke-opacity:0.628169;stroke-width:1.00011285;stroke-miterlimit:4;stroke-dasharray:none"
       d="m 238.05513,454.26925 -3.72,11.98 q -0.46,1.54 -1.04,1.98 -0.64,0.54 -1.5,0.54 -0.88,0 -1.52,-0.54 -0.58,-0.44 -1.04,-1.98 l -4.44,-14.94 q -0.34,-1.18 -0.2,-1.76 0.14,-0.58 0.68,-0.98 0.56,-0.4 1.24,-0.4 0.76,0 1.3,0.54 0.36,0.36 0.7,1.54 l 3.5,12.3 3.66,-11.98 q 0.44,-1.44 1,-1.9 0.56,-0.5 1.38,-0.5 0.82,0 1.38,0.5 0.56,0.46 1,1.9 l 3.66,11.98 3.5,-12.3 q 0.34,-1.18 0.7,-1.54 0.54,-0.54 1.3,-0.54 0.68,0 1.22,0.4 0.56,0.4 0.7,0.98 0.14,0.58 -0.2,1.76 l -4.44,14.94 q -0.46,1.54 -1.04,1.98 -0.64,0.54 -1.52,0.54 -0.86,0 -1.5,-0.54 -0.58,-0.44 -1.04,-1.98 z" /><path
       inkscape:connector-curvature="0"
       id="path1729"
       style="font-style:normal;font-variant:normal;font-weight:normal;font-stretch:normal;font-family:'DIN Round Pro';-inkscape-font-specification:'DIN Round Pro';fill:#8766fa;fill-opacity:1;stroke:#8766fa;stroke-opacity:0.628169;stroke-width:1.00011285;stroke-miterlimit:4;stroke-dasharray:none"
       d="m 254.11763,462.64925 q 0,-2.64 1.82,-4.26 1.84,-1.62 5.2,-1.62 h 5.38 v -1.26 q 0,-2.02 -1.02,-2.98 -1,-0.98 -3.22,-0.98 -2.1,0 -3.88,1.36 -0.7,0.54 -1.48,0.54 -0.74,0 -1.18,-0.54 -0.48,-0.54 -0.48,-1.26 0,-1.24 1.9,-2.34 2.12,-1.22 5.16,-1.22 4.08,0 6.18,1.78 2.12,1.76 2.12,5.2 v 10.92 q 0,1.3 -0.3,1.84 -0.5,0.94 -1.74,0.94 -0.94,0 -1.48,-0.58 -0.42,-0.48 -0.46,-1.46 -1.2,1.18 -2.4,1.64 -1.18,0.46 -3.04,0.46 -3.68,0 -5.46,-1.84 -1.62,-1.66 -1.62,-4.34 z m 3.98,-0.06 q 0,2.86 3.82,2.86 1.24,0 2.1,-0.22 0.88,-0.24 1.6,-0.94 0.9,-0.84 0.9,-3.02 v -1.6 h -4.8 q -1.78,0 -2.7,0.76 -0.92,0.74 -0.92,2.16 z" /><path
       inkscape:connector-curvature="0"
       id="path1731"
       style="font-style:normal;font-variant:normal;font-weight:normal;font-stretch:normal;font-family:'DIN Round Pro';-inkscape-font-specification:'DIN Round Pro';fill:#8766fa;fill-opacity:1;stroke:#8766fa;stroke-opacity:0.628169;stroke-width:1.00011285;stroke-miterlimit:4;stroke-dasharray:none"
       d="m 302.09888,450.94925 v 23.22 q 0,1.22 -0.3,1.82 -0.5,0.96 -1.74,0.96 -1.24,0 -1.74,-0.96 -0.3,-0.6 -0.3,-1.82 v -7.62 q -1.06,1.26 -2.34,1.78 -1.26,0.5 -2.98,0.5 -3.12,0 -4.92,-1.8 -1.34,-1.36 -1.8,-3.46 -0.44,-2.12 -0.44,-5.1 0,-3 0.44,-5.12 0.46,-2.12 1.8,-3.48 1.8,-1.8 4.96,-1.8 1.68,0 2.94,0.52 1.28,0.52 2.36,1.8 0.04,-1.02 0.36,-1.44 0.56,-0.8 1.66,-0.8 1.14,0 1.68,0.86 0.36,0.6 0.36,1.94 z m -12.4,5.42 q -0.08,0.88 -0.08,2.08 0,1.2 0.08,2.1 0.08,0.88 0.34,1.8 0.26,0.92 0.7,1.5 0.46,0.56 1.22,0.94 0.78,0.36 1.86,0.36 1.08,0 1.86,-0.36 0.78,-0.38 1.22,-0.94 0.46,-0.58 0.72,-1.5 0.26,-0.92 0.34,-1.8 0.08,-0.9 0.08,-2.1 0,-1.2 -0.08,-2.08 -0.08,-0.9 -0.34,-1.82 -0.26,-0.92 -0.72,-1.48 -0.44,-0.58 -1.22,-0.94 -0.78,-0.38 -1.86,-0.38 -1.08,0 -1.86,0.38 -0.76,0.36 -1.22,0.94 -0.44,0.56 -0.7,1.48 -0.26,0.92 -0.34,1.82 z" /><path
       inkscape:connector-curvature="0"
       id="path1733"
       style="font-style:normal;font-variant:normal;font-weight:normal;font-stretch:normal;font-family:'DIN Round Pro';-inkscape-font-specification:'DIN Round Pro';fill:#8766fa;fill-opacity:1;stroke:#8766fa;stroke-opacity:0.628169;stroke-width:1.00011285;stroke-miterlimit:4;stroke-dasharray:none"
       d="m 320.74825,460.68925 v -9.74 q 0,-1.22 0.3,-1.82 0.5,-0.96 1.74,-0.96 1.24,0 1.74,0.96 0.3,0.6 0.3,1.82 v 15.02 q 0,1.34 -0.36,1.94 -0.54,0.86 -1.68,0.86 -1.1,0 -1.66,-0.8 -0.32,-0.46 -0.36,-1.34 -2.1,2.22 -5.34,2.22 -3.1,0 -5,-1.84 -2.04,-1.98 -2.04,-5.72 v -10.34 q 0,-1.22 0.3,-1.82 0.5,-0.96 1.74,-0.96 1.24,0 1.74,0.96 0.3,0.6 0.3,1.82 v 9.74 q 0,2.26 1.12,3.38 1.14,1.1 2.96,1.1 1.84,0 3.02,-1.12 1.18,-1.14 1.18,-3.36 z" /><path
       inkscape:connector-curvature="0"
       id="path1735"
       style="font-style:normal;font-variant:normal;font-weight:normal;font-stretch:normal;font-family:'DIN Round Pro';-inkscape-font-specification:'DIN Round Pro';fill:#8766fa;fill-opacity:1;stroke:#8766fa;stroke-opacity:0.628169;stroke-width:1.00011285;stroke-miterlimit:4;stroke-dasharray:none"
       d="m 335.40263,465.98925 q 0,1.22 -0.3,1.82 -0.5,0.96 -1.74,0.96 -1.24,0 -1.74,-0.96 -0.3,-0.6 -0.3,-1.82 v -15.04 q 0,-1.22 0.3,-1.82 0.5,-0.96 1.74,-0.96 1.24,0 1.74,0.96 0.3,0.6 0.3,1.82 z m -3.78,-22.54 q -0.72,-0.72 -0.72,-1.74 0,-1.02 0.72,-1.74 0.72,-0.72 1.74,-0.72 1.02,0 1.74,0.72 0.72,0.72 0.72,1.74 0,1.02 -0.72,1.74 -0.72,0.72 -1.74,0.72 -1.02,0 -1.74,-0.72 z" /><path
       inkscape:connector-curvature="0"
       id="path1737"
       style="font-style:normal;font-variant:normal;font-weight:normal;font-stretch:normal;font-family:'DIN Round Pro';-inkscape-font-specification:'DIN Round Pro';fill:#8766fa;fill-opacity:1;stroke:#8766fa;stroke-opacity:0.628169;stroke-width:1.00011285;stroke-miterlimit:4;stroke-dasharray:none"
       d="m 343.1095,448.32925 h 9.94 q 1.18,0 1.76,0.34 0.82,0.48 0.82,1.42 0,0.86 -0.82,1.98 l -9.34,12.86 h 7.7 q 1.2,0 1.66,0.28 0.84,0.5 0.84,1.56 0,1.06 -0.84,1.56 -0.5,0.28 -1.66,0.28 h -10.5 q -1.2,0 -1.76,-0.34 -0.8,-0.44 -0.8,-1.44 0,-0.52 0.16,-0.92 0.18,-0.4 0.66,-1.06 l 9.3,-12.84 h -7.12 q -1.16,0 -1.66,-0.28 -0.84,-0.5 -0.84,-1.56 0,-1.06 0.84,-1.56 0.46,-0.28 1.66,-0.28 z" /></g></g></svg>