<?xml version="1.0" encoding="UTF-8" standalone="no"?>
<svg
   xmlns:dc="http://purl.org/dc/elements/1.1/"
   xmlns:cc="http://creativecommons.org/ns#"
   xmlns:rdf="http://www.w3.org/1999/02/22-rdf-syntax-ns#"
   xmlns:svg="http://www.w3.org/2000/svg"
   xmlns="http://www.w3.org/2000/svg"
   xmlns:sodipodi="http://sodipodi.sourceforge.net/DTD/sodipodi-0.dtd"
   xmlns:inkscape="http://www.inkscape.org/namespaces/inkscape"
   width="934pt"
   height="934pt"
   viewBox="0 0 934 934"
   version="1.1"
   id="svg18"
   sodipodi:docname="logo.svg"
   inkscape:version="0.92.4 (fd57863, 2020-04-02)">
  <metadata
     id="metadata24">
    <rdf:RDF>
      <cc:Work
         rdf:about="">
        <dc:format>image/svg+xml</dc:format>
        <dc:type
           rdf:resource="http://purl.org/dc/dcmitype/StillImage" />
      </cc:Work>
    </rdf:RDF>
  </metadata>
  <defs
     id="defs22" />
  <sodipodi:namedview
     pagecolor="#ffffff"
     bordercolor="#666666"
     borderopacity="1"
     objecttolerance="10"
     gridtolerance="10"
     guidetolerance="10"
     inkscape:pageopacity="0"
     inkscape:pageshadow="2"
     inkscape:window-width="1853"
     inkscape:window-height="1025"
     id="namedview20"
     showgrid="false"
     inkscape:zoom="0.39"
     inkscape:cx="-10.666663"
     inkscape:cy="622.66667"
     inkscape:window-x="67"
     inkscape:window-y="27"
     inkscape:window-maximized="1"
     inkscape:current-layer="#2ba7dfff" />
  <g
     id="#2ba7dfff">
    <path
       fill="#2ba7df"
       opacity="1.00"
       d=" M 170.12 207.53 C 344.05 182.75 517.98 157.96 691.92 133.20 C 707.53 131.33 723.37 141.59 728.36 156.44 C 730.16 161.41 730.53 166.75 730.26 171.99 C 730.23 206.37 730.26 240.75 730.25 275.13 C 637.37 347.82 556.89 436.34 493.53 535.82 C 484.20 527.07 474.94 518.23 466.27 508.81 C 481.57 497.27 493.15 480.85 498.52 462.43 C 502.15 450.75 501.86 438.06 498.48 426.36 C 493.94 410.33 485.15 396.03 477.64 381.30 C 470.62 368.37 460.15 356.00 445.60 351.61 C 429.95 347.16 410.85 352.90 402.18 367.18 C 396.28 377.00 395.47 389.07 397.23 400.18 C 398.57 409.30 402.24 417.83 405.72 426.31 C 413.33 444.57 422.42 462.23 432.84 479.05 C 398.99 498.23 359.84 504.46 321.76 509.22 C 260.37 516.11 197.88 512.68 137.50 499.67 C 137.47 415.11 137.54 330.56 137.46 246.00 C 136.47 233.08 142.98 219.94 153.98 213.05 C 158.80 209.92 164.42 208.15 170.12 207.53 M 418.32 305.41 C 417.21 307.73 414.02 308.62 411.87 307.24 C 406.20 303.76 400.59 300.18 394.97 296.63 C 392.37 299.28 390.40 302.45 388.32 305.51 C 383.66 312.62 379.00 319.78 375.15 327.37 C 383.90 333.32 393.00 338.75 401.90 344.48 C 406.60 339.16 410.72 333.34 414.20 327.15 C 415.29 324.63 418.68 323.53 420.97 325.13 C 426.64 328.50 432.41 331.71 438.20 334.88 C 441.78 331.12 444.40 326.58 447.23 322.26 C 450.94 316.24 454.76 310.26 457.85 303.88 C 448.78 298.66 439.66 293.55 430.61 288.30 C 425.77 293.43 421.74 299.26 418.32 305.41 Z"
       id="path2"
       style="fill:#9b7ffa;fill-opacity:1" />
    <path
       fill="#2ba7df"
       opacity="1.00"
       d=" M 775.31 176.38 C 780.38 174.84 786.18 175.44 790.49 178.67 C 794.73 181.67 797.21 186.87 797.17 192.04 C 796.93 357.35 796.71 522.67 796.48 687.98 C 796.33 695.39 791.27 702.69 783.99 704.67 C 778.36 706.32 772.13 704.55 767.92 700.56 C 776.50 698.20 783.22 690.05 783.13 681.04 C 783.10 517.69 783.16 354.33 783.10 190.98 C 783.19 185.12 779.86 179.83 775.31 176.38 Z"
       id="path4"
       style="fill:#9b7ffa;fill-opacity:1" />
    <path
       fill="#2ba7df"
       opacity="1.00"
       d=" M 512.87 575.42 C 571.86 483.25 645.51 400.48 730.24 331.23 C 730.30 446.15 730.13 561.07 730.38 675.98 C 730.72 689.00 725.64 702.14 716.39 711.36 C 711.01 716.71 703.76 720.66 696.03 720.68 C 621.24 720.65 546.45 720.73 471.66 720.64 C 443.74 747.40 416.06 774.42 388.14 801.18 C 375.77 774.35 363.40 747.51 351.02 720.68 C 294.37 720.68 237.71 720.68 181.06 720.68 C 175.03 720.48 168.85 721.38 163.01 719.43 C 148.78 715.49 138.01 701.86 137.45 687.10 C 137.57 637.88 137.46 588.64 137.50 539.41 C 208.04 556.19 281.79 559.99 353.56 549.34 C 374.88 546.40 395.98 541.53 416.20 534.06 C 430.49 528.68 444.63 522.62 457.68 514.60 C 474.72 536.06 494.12 555.48 512.87 575.42 Z"
       id="path6"
       style="fill:#9b7ffa;fill-opacity:1" />
    <path
       fill="#2ba7df"
       opacity="1.00"
       d=" M 432.55 399.57 C 442.40 393.41 455.06 392.29 466.00 396.02 C 470.12 397.42 474.54 399.25 476.83 403.22 C 479.70 407.63 478.77 413.13 477.94 418.01 C 473.19 440.15 458.70 459.85 439.28 471.41 C 434.17 464.54 429.25 457.52 424.48 450.41 C 419.30 442.76 418.13 433.10 418.83 424.08 C 419.58 414.46 424.24 404.82 432.55 399.57 Z"
       id="path8"
       style="fill:#9b7ffa;fill-opacity:1" />
  </g>
  <g
     id="#ffffffff">
    <path
       fill="#ffffff"
       opacity="1.00"
       d=" M 723.91 143.51 C 740.81 155.46 757.81 167.27 774.75 179.17 C 778.11 181.71 780.35 185.79 780.50 190.03 C 780.75 301.34 780.57 412.65 780.62 523.97 C 780.60 577.01 780.88 630.05 780.72 683.10 C 780.45 690.23 774.14 695.29 767.95 697.64 C 750.52 703.78 733.07 709.90 715.59 715.94 C 726.24 706.80 732.72 693.01 733.00 678.99 C 733.01 508.98 733.00 338.97 733.00 168.96 C 733.00 159.74 729.47 150.79 723.91 143.51 Z"
       id="path11" />
    <path
       fill="#ffffff"
       opacity="1.00"
       d=" M 493.53 535.82 C 556.89 436.34 637.37 347.82 730.25 275.13 C 730.25 293.83 730.26 312.53 730.24 331.23 C 645.51 400.48 571.86 483.25 512.87 575.42 C 494.12 555.48 474.72 536.06 457.68 514.60 C 444.63 522.62 430.49 528.68 416.20 534.06 C 395.98 541.53 374.88 546.40 353.56 549.34 C 281.79 559.99 208.04 556.19 137.50 539.41 C 137.50 526.16 137.50 512.92 137.50 499.67 C 197.88 512.68 260.37 516.11 321.76 509.22 C 359.84 504.46 398.99 498.23 432.84 479.05 C 422.42 462.23 413.33 444.57 405.72 426.31 C 402.24 417.83 398.57 409.30 397.23 400.18 C 395.47 389.07 396.28 377.00 402.18 367.18 C 410.85 352.90 429.95 347.16 445.60 351.61 C 460.15 356.00 470.62 368.37 477.64 381.30 C 485.15 396.03 493.94 410.33 498.48 426.36 C 501.86 438.06 502.15 450.75 498.52 462.43 C 493.15 480.85 481.57 497.27 466.27 508.81 C 474.94 518.23 484.20 527.07 493.53 535.82 M 432.55 399.57 C 424.24 404.82 419.58 414.46 418.83 424.08 C 418.13 433.10 419.30 442.76 424.48 450.41 C 429.25 457.52 434.17 464.54 439.28 471.41 C 458.70 459.85 473.19 440.15 477.94 418.01 C 478.77 413.13 479.70 407.63 476.83 403.22 C 474.54 399.25 470.12 397.42 466.00 396.02 C 455.06 392.29 442.40 393.41 432.55 399.57 Z"
       id="path13" />
    <path
       fill="#ffffff"
       opacity="1.00"
       d=" M 418.32 305.41 C 421.74 299.26 425.77 293.43 430.61 288.30 C 439.66 293.55 448.78 298.66 457.85 303.88 C 454.76 310.26 450.94 316.24 447.23 322.26 C 444.40 326.58 441.78 331.12 438.20 334.88 C 432.41 331.71 426.64 328.50 420.97 325.13 C 418.68 323.53 415.29 324.63 414.20 327.15 C 410.72 333.34 406.60 339.16 401.90 344.48 C 393.00 338.75 383.90 333.32 375.15 327.37 C 379.00 319.78 383.66 312.62 388.32 305.51 C 390.40 302.45 392.37 299.28 394.97 296.63 C 400.59 300.18 406.20 303.76 411.87 307.24 C 414.02 308.62 417.21 307.73 418.32 305.41 Z"
       id="path15" />
  </g>
</svg>
