<?xml version="1.0" encoding="UTF-8" standalone="no"?>
<!-- Generator: Adobe Illustrator 19.0.0, SVG Export Plug-In . SVG Version: 6.00 Build 0)  -->

<svg
   xmlns:dc="http://purl.org/dc/elements/1.1/"
   xmlns:cc="http://creativecommons.org/ns#"
   xmlns:rdf="http://www.w3.org/1999/02/22-rdf-syntax-ns#"
   xmlns:svg="http://www.w3.org/2000/svg"
   xmlns="http://www.w3.org/2000/svg"
   xmlns:sodipodi="http://sodipodi.sourceforge.net/DTD/sodipodi-0.dtd"
   xmlns:inkscape="http://www.inkscape.org/namespaces/inkscape"
   version="1.1"
   id="Capa_1"
   x="0px"
   y="0px"
   viewBox="0 0 511.999 511.999"
   style="enable-background:new 0 0 511.999 511.999;"
   xml:space="preserve"
   sodipodi:docname="logo.svg"
   inkscape:version="0.92.4 (f8dce91, 2019-08-02)"><metadata
   id="metadata75"><rdf:RDF><cc:Work
       rdf:about=""><dc:format>image/svg+xml</dc:format><dc:type
         rdf:resource="http://purl.org/dc/dcmitype/StillImage" /></cc:Work></rdf:RDF></metadata><defs
   id="defs73" /><sodipodi:namedview
   pagecolor="#ffffff"
   bordercolor="#666666"
   borderopacity="1"
   objecttolerance="10"
   gridtolerance="10"
   guidetolerance="10"
   inkscape:pageopacity="0"
   inkscape:pageshadow="2"
   inkscape:window-width="1853"
   inkscape:window-height="1025"
   id="namedview71"
   showgrid="false"
   inkscape:zoom="0.46093841"
   inkscape:cx="603.11746"
   inkscape:cy="776.67644"
   inkscape:window-x="67"
   inkscape:window-y="27"
   inkscape:window-maximized="1"
   inkscape:current-layer="Capa_1" />
<path
   style="fill:#8766fa;fill-opacity:1"
   d="M435.295,280.814c15.774,0,28.072,5.464,32.9,14.617c5.152,9.768,1.013,21.415-1.912,27.489  c-6.467,13.428-19.226,25.902-35.005,34.223c-12.687,6.691-26.128,10.228-38.87,10.228c-15.778,0-28.08-5.464-32.906-14.617  c-5.152-9.768-1.013-21.415,1.912-27.489c6.467-13.428,19.226-25.902,35.005-34.223c12.686-6.69,26.127-10.227,38.873-10.228  H435.295L435.295,280.814 M435.287,249.908c-17.077,0.001-35.624,4.481-53.287,13.796c-45.113,23.791-67.424,70.114-49.836,103.465  c10.702,20.292,33.704,31.105,60.243,31.105c17.077,0,35.624-4.481,53.287-13.796c45.113-23.791,67.424-70.114,49.836-103.465  C484.829,260.721,461.827,249.906,435.287,249.908L435.287,249.908z"
   id="path2" />
<path
   style="fill:#9b7ffa;fill-opacity:1"
   d="M382,263.705c-45.113,23.791-67.424,70.114-49.836,103.465  c10.702,20.292,33.704,31.105,60.243,31.105c7.576,0,15.442-0.887,23.391-2.682c11.147-14.27,19.929-29.773,26.839-45.53  c-3.558,2.591-7.361,4.969-11.361,7.078c-12.687,6.691-26.128,10.228-38.87,10.228c-15.778,0-28.08-5.464-32.906-14.617  c-5.152-9.768-1.013-21.415,1.912-27.489c6.467-13.428,19.226-25.902,35.005-34.223c12.686-6.69,26.127-10.227,38.873-10.228h0.003  h0.001c10.793,0,19.956,2.561,26.215,7.108c2.222-11.635,3.686-22.599,4.639-32.405c-9.237-3.702-19.735-5.609-30.86-5.608  C418.21,249.909,399.664,254.389,382,263.705z"
   id="path4" />
<path
   style="fill:#D8D7DA;"
   d="M390.499,114.787c-8.916,15.288-95.218,134.792-110.507,125.876  c-15.288-8.916,46.226-142.875,55.142-158.163c8.916-15.288,28.537-20.454,43.826-11.538  C394.249,79.877,399.415,99.499,390.499,114.787z"
   id="path6" />
<path
   style="fill:#C6C5CA;"
   d="M367.408,147.93c-27.515-10.852-36.127-33.868-37.484-55.314  c-17.274,35.324-63.397,140.192-49.93,148.046C290.919,247.034,338.109,187.824,367.408,147.93z"
   id="path8" />
<path
   style="fill:#e5e5e5;fill-opacity:1"
   d="M235,235.509c-12.852,0-23.269-10.418-23.269-23.269c0-47.242-11.234-59.057-23.127-71.567  c-10.72-11.274-24.061-25.306-26.447-54.734c-4.043-49.879,32.419-77.088,64.874-85.234c12.47-3.129,25.106,4.441,28.233,16.905  c3.129,12.465-4.44,25.106-16.905,28.233c-27.937,7.011-30.672,25.774-29.814,36.334c1.057,13.039,5.046,17.235,13.787,26.428  c18.938,19.92,35.938,42.834,35.938,103.633C258.268,225.09,247.851,235.509,235,235.509z"
   id="path10" />
<path
   style="fill:#c2b0ff;fill-opacity:1"
   d="M367.381,169.938H72.883c-35.987,0-64.396,30.331-62.32,66.258  c3.081,53.317,18.984,127.974,77.142,181.834c26.61,24.643,61.79,37.942,98.059,37.942h68.732c36.269,0,71.448-13.299,98.058-37.942  c58.401-54.085,74.193-129.139,77.18-182.5C431.731,199.864,403.102,169.938,367.381,169.938z"
   id="path12" />
<path
   style="fill:#9b7ffa;fill-opacity:1"
   d="M139.589,255.999c-0.98-83.307,78.222-85.996,85.928-86.061H72.883  c-35.987,0-64.396,30.331-62.32,66.258c3.081,53.317,18.984,127.974,77.142,181.834c26.61,24.643,61.79,37.942,98.059,37.942h68.732  c5.237,0,10.451-0.286,15.622-0.835C251.844,301.62,140.555,338.04,139.589,255.999z"
   id="path14" />


<path
   style="fill:#ded6fc;fill-opacity:1"
   d="M401.639,433.157H38.651c-17.485,0-25.844,24.394-12.956,37.806l20.743,21.583  c12.024,12.512,27.745,19.453,44.059,19.453h259.297c16.313,0,32.033-6.941,44.059-19.454l20.742-21.583  C427.484,457.551,419.124,433.157,401.639,433.157z"
   id="path20" />
<path
   style="fill:#c2b0ff;fill-opacity:1"
   d="M141.766,470.963c-12.89-13.412-4.53-37.806,12.956-37.806H38.65  c-17.485,0-25.844,24.394-12.956,37.806l20.743,21.583c12.025,12.512,27.746,19.453,44.06,19.453h116.07  c-16.313,0-32.033-6.941-44.059-19.454L141.766,470.963z"
   id="path22" />
<path
   style="fill:#e5e5e5;fill-opacity:1"
   d="M84.424,109.275c-6.768-23.798-5.18-50.106,4.594-76.079c4.527-12.027,17.946-18.11,29.974-13.583  c12.027,4.527,18.109,17.947,13.583,29.974c-6.327,16.814-7.467,32.612-3.388,46.958c3.515,12.361-3.742,24.943-16.016,28.746  C96.411,130.485,87.334,119.509,84.424,109.275z"
   id="path24" />
<path
   style="fill:#57565C;"
   d="M220.144,323.276L220.144,323.276c-15.988,0-28.948-12.961-28.948-28.948v-21.047  c0-4.365,3.538-7.903,7.903-7.903h42.092c4.365,0,7.903,3.538,7.903,7.903v21.047C249.092,310.315,236.133,323.276,220.144,323.276z  "
   id="path26" />
<g
   id="g32">
	<ellipse
   style="fill:#FFA6BB;"
   cx="123.312"
   cy="294.322"
   rx="30.878"
   ry="24.589"
   id="ellipse28" />
	<ellipse
   style="fill:#FFA6BB;"
   cx="316.976"
   cy="294.322"
   rx="30.878"
   ry="24.589"
   id="ellipse30" />
</g>
<g
   id="g38">
	<path
   style="fill:#57565C;"
   d="M303.236,280.829c-4.268,0-7.726-3.459-7.726-7.726v-12.827c0-4.267,3.458-7.726,7.726-7.726   s7.726,3.459,7.726,7.726v12.827C310.962,277.37,307.504,280.829,303.236,280.829z"
   id="path34" />
	<path
   style="fill:#57565C;"
   d="M137.054,280.829c-4.268,0-7.726-3.459-7.726-7.726v-12.827c0-4.267,3.458-7.726,7.726-7.726   c4.268,0,7.726,3.459,7.726,7.726v12.827C144.78,277.37,141.321,280.829,137.054,280.829z"
   id="path36" />
</g>
<g
   id="g40">
</g>
<g
   id="g42">
</g>
<g
   id="g44">
</g>
<g
   id="g46">
</g>
<g
   id="g48">
</g>
<g
   id="g50">
</g>
<g
   id="g52">
</g>
<g
   id="g54">
</g>
<g
   id="g56">
</g>
<g
   id="g58">
</g>
<g
   id="g60">
</g>
<g
   id="g62">
</g>
<g
   id="g64">
</g>
<g
   id="g66">
</g>
<g
   id="g68">
</g>
</svg>