<?xml version="1.0" encoding="UTF-8" standalone="no"?>
<svg
   xmlns:dc="http://purl.org/dc/elements/1.1/"
   xmlns:cc="http://creativecommons.org/ns#"
   xmlns:rdf="http://www.w3.org/1999/02/22-rdf-syntax-ns#"
   xmlns:svg="http://www.w3.org/2000/svg"
   xmlns="http://www.w3.org/2000/svg"
   xmlns:sodipodi="http://sodipodi.sourceforge.net/DTD/sodipodi-0.dtd"
   xmlns:inkscape="http://www.inkscape.org/namespaces/inkscape"
   inkscape:version="1.0 (4035a4f, 2020-05-01)"
   sodipodi:docname="logo.svg"
   id="svg1075"
   version="1.1"
   width="512pt"
   viewBox="-13 0 512 512.00039"
   height="512pt">
  <metadata
     id="metadata1081">
    <rdf:RDF>
      <cc:Work
         rdf:about="">
        <dc:format>image/svg+xml</dc:format>
        <dc:type
           rdf:resource="http://purl.org/dc/dcmitype/StillImage" />
      </cc:Work>
    </rdf:RDF>
  </metadata>
  <defs
     id="defs1079" />
  <sodipodi:namedview
     inkscape:current-layer="svg1075"
     inkscape:window-maximized="0"
     inkscape:window-y="0"
     inkscape:window-x="0"
     inkscape:cy="341.33333"
     inkscape:cx="341.33333"
     inkscape:zoom="0.81298828"
     showgrid="false"
     id="namedview1077"
     inkscape:window-height="900"
     inkscape:window-width="1440"
     inkscape:pageshadow="2"
     inkscape:pageopacity="0"
     guidetolerance="10"
     gridtolerance="10"
     objecttolerance="10"
     borderopacity="1"
     bordercolor="#666666"
     pagecolor="#ffffff" />
  <g
     transform="matrix(0.70810745,0,0,0.70810745,70.775082,74.724928)"
     id="g1100">
    <path
       d="M 473.57422,117.25391 422.44141,66.117188 c -17.15235,-17.148438 -44.95704,-17.148438 -62.10938,0 l -63.37891,63.378902 113.24219,113.24219 63.37891,-63.37891 c 17.15234,-17.14843 17.15234,-44.95703 0,-62.10546 z m 0,0"
       fill="#eab9a4"
       id="path1041" />
    <path
       d="m 470.50781,114.1875 -48.0664,-48.066406 c -17.15235,-17.152344 -44.95704,-17.152344 -62.10938,0 l -63.37891,63.374996 48.06641,48.07032 63.37891,-63.37891 c 17.15234,-17.152344 44.96094,-17.152344 62.10937,0 z m 0,0"
       fill="#dd9f80"
       id="path1043" />
    <path
       d="M 51.144531,488.54687 C 19.875,457.27734 19.875,406.57422 51.144531,375.30469 L 304.27734,122.17578 417.51953,235.41797 164.39062,488.54687 c -31.27343,31.26954 -81.972651,31.26954 -113.246089,0 z m 0,0"
       fill="#abebf4"
       id="path1045" />
    <path
       d="m 51.144531,488.54687 c 6.996094,6.9961 14.972657,12.42969 23.476563,16.29297 -3.972656,-24.11718 -1.351563,-51.95312 13.636718,-82.68359 29.910158,-61.32813 85.855468,-111.37891 129.128908,-143.39453 28.02344,-20.73047 66.16015,-20.03125 93.88281,1.10547 14.46875,11.02734 29.17578,17.25781 40.64453,21.15234 L 417.51953,235.41797 304.27734,122.17187 51.144531,375.30469 c -31.269531,31.26953 -31.269531,81.97265 0,113.24218 z m 0,0"
       fill="#8ed7e8"
       id="path1047" />
    <path
       d="m 51.144531,375.30469 c -31.269531,31.26953 -31.269531,81.97265 0,113.24218 31.273438,31.26954 81.972659,31.26954 113.246089,0 L 284.96484,367.97266 C 225.41016,321.60156 194.08203,232.36719 194.08203,232.36719 Z m 0,0"
       fill="#cf92ff"
       id="path1049" />
    <path
       d="m 51.144531,488.54687 c 6.996094,6.9961 14.972657,12.42969 23.476563,16.29297 -3.96875,-24.11328 -1.347656,-51.95703 13.636718,-82.68359 C 117.78125,361.62109 172.67187,312.07422 215.69922,280.01172 201.40625,253.22656 194.08203,232.36719 194.08203,232.36719 L 51.144531,375.30469 c -31.269531,31.26953 -31.269531,81.97265 0,113.24218 z m 0,0"
       fill="#b86eff"
       id="path1051" />
    <path
       d="M 371.8125,277.58594 262.10937,167.87891 c -20.22265,-20.22266 -20.22265,-53.00782 0,-73.230472 20.21875,-20.21875 53.00391,-20.21875 73.22657,0 L 445.04297,204.35547 c 20.21875,20.22265 20.21875,53.00781 0,73.23047 -20.22266,20.22265 -53.00781,20.22265 -73.23047,0 z m 0,0"
       fill="#ccf8ff"
       id="path1053" />
    <path
       d="m 328.00781,160.55469 c 20.22266,-20.22266 53.00781,-20.22266 73.23047,0 L 335.33594,94.652344 c -20.21875,-20.222656 -53.00781,-20.222656 -73.22656,0 -20.22266,20.218746 -20.22266,53.007816 0,73.226566 l 65.89843,65.90625 c -20.21875,-20.22266 -20.21875,-53.01172 0,-73.23047 z m 0,0"
       fill="#abebf4"
       id="path1055" />
    <path
       d="m 194.08203,232.36719 c -34.9375,34.9375 1.50391,111.91015 90.88281,135.60156 0,0 -34.91406,-36.3125 -30.07031,-83.17188 4.85156,-46.86328 -24.47656,-88.76562 -60.8125,-52.42968 z m 0,0"
       fill="#dfaeff"
       id="path1057" />
    <path
       d="m 190.39062,299.93359 c 9.29297,-7.73047 18.40235,-14.8125 27,-21.17187 11.28516,-8.35156 24.21875,-13.22656 37.44922,-14.6875 -4.14843,-37.05078 -29.92578,-62.53516 -60.7539,-31.70703 -16.4961,16.49609 -17.08594,42.36328 -3.69532,67.5664 z m 0,0"
       fill="#cf92ff"
       id="path1059" />
    <path
       d="m 154.87891,7.5 5.34375,9.769531 c 5.33203,9.75 13.34765,17.761719 23.09375,23.09375 l 9.76953,5.34375 c 10,5.46875 10,19.832031 0,25.300781 l -9.76953,5.34375 c -9.75,5.332032 -17.76172,13.347657 -23.09375,23.09375 l -5.34375,9.769528 c -5.46875,10 -19.83204,10 -25.30079,0 l -5.34374,-9.769528 C 118.90234,89.699219 110.88672,81.683594 101.14063,76.355469 l -9.769536,-5.347657 c -10,-5.46875 -10,-19.832031 0,-25.300781 l 9.769536,-5.34375 c 9.74609,-5.332031 17.76171,-13.34375 23.09375,-23.089843 L 129.57812,7.5 c 5.46875,-10 19.83204,-10 25.30079,0 z m 0,0"
       fill="#ffeb99"
       id="path1061" />
    <path
       d="m 46.453125,199.36328 3.496094,6.39453 c 3.488281,6.375 8.730469,11.61719 15.109375,15.10547 l 6.390625,3.49609 c 6.542969,3.57813 6.542969,12.97657 0,16.55079 l -6.390625,3.5 c -6.378906,3.48437 -11.621094,8.72656 -15.109375,15.10546 l -3.496094,6.39063 c -3.578125,6.54297 -12.972656,6.54297 -16.550781,0 l -3.496094,-6.39063 c -3.488281,-6.375 -8.730469,-11.62109 -15.109375,-15.10546 l -6.390625,-3.5 c -6.542969,-3.57422 -6.542969,-12.97266 0,-16.55079 l 6.390625,-3.49609 c 6.378906,-3.48828 11.621094,-8.73047 15.109375,-15.10547 l 3.496094,-6.39453 c 3.578125,-6.53906 12.972656,-6.53906 16.550781,0 z m 0,0"
       fill="#ffde55"
       id="path1063" />
    <g
       fill="#ffeb99"
       id="g1073">
      <path
         d="m 436.40625,338.91406 3.49609,6.39063 c 3.48828,6.3789 8.73047,11.62109 15.10547,15.10547 l 6.39453,3.5 c 6.53907,3.57421 6.53907,12.97265 0,16.55078 l -6.39453,3.49609 c -6.375,3.48828 -11.61719,8.73047 -15.10547,15.10547 l -3.49609,6.39453 c -3.57813,6.53906 -12.97266,6.53906 -16.55078,0 l -3.4961,-6.39453 c -3.48828,-6.375 -8.73046,-11.61719 -15.10937,-15.10547 l -6.39063,-3.49609 c -6.54296,-3.57813 -6.54296,-12.97656 0,-16.55078 l 6.39063,-3.5 c 6.375,-3.48438 11.62109,-8.72657 15.10937,-15.10547 l 3.4961,-6.39063 c 3.57812,-6.54297 12.97265,-6.54297 16.55078,0 z m 0,0"
         id="path1065" />
      <path
         d="m 141.45312,362.5625 c 0,8.53125 -6.91796,15.45312 -15.44921,15.45312 -8.53516,0 -15.45313,-6.92187 -15.45313,-15.45312 0,-8.53516 6.91797,-15.45313 15.45313,-15.45313 8.53125,0 15.44921,6.91797 15.44921,15.45313 z m 0,0"
         id="path1067" />
      <path
         d="m 217.08203,381.21875 c 0,8.53125 -6.91797,15.45312 -15.45312,15.45312 -8.53516,0 -15.45313,-6.92187 -15.45313,-15.45312 0,-8.53516 6.91797,-15.45313 15.45313,-15.45313 8.53515,0 15.45312,6.91797 15.45312,15.45313 z m 0,0"
         id="path1069" />
      <path
         d="m 139.92578,436.51953 c 0,8.53516 -6.91797,15.45313 -15.45312,15.45313 -8.53125,0 -15.44922,-6.91797 -15.44922,-15.45313 0,-8.53516 6.91797,-15.45312 15.44922,-15.45312 8.53515,0 15.45312,6.91796 15.45312,15.45312 z m 0,0"
         id="path1071" />
    </g>
  </g>
</svg>
