<?xml version="1.0" encoding="UTF-8" standalone="no"?>
<!-- Generator: Adobe Illustrator 19.0.0, SVG Export Plug-In . SVG Version: 6.00 Build 0)  -->

<svg
   xmlns:dc="http://purl.org/dc/elements/1.1/"
   xmlns:cc="http://creativecommons.org/ns#"
   xmlns:rdf="http://www.w3.org/1999/02/22-rdf-syntax-ns#"
   xmlns:svg="http://www.w3.org/2000/svg"
   xmlns="http://www.w3.org/2000/svg"
   xmlns:sodipodi="http://sodipodi.sourceforge.net/DTD/sodipodi-0.dtd"
   xmlns:inkscape="http://www.inkscape.org/namespaces/inkscape"
   version="1.1"
   id="Capa_1"
   x="0px"
   y="0px"
   viewBox="0 0 511.999 511.999"
   style="enable-background:new 0 0 511.999 511.999;"
   xml:space="preserve"
   sodipodi:docname="profile.svg"
   inkscape:version="0.92.4 (f8dce91, 2019-08-02)"><metadata
   id="metadata75"><rdf:RDF><cc:Work
       rdf:about=""><dc:format>image/svg+xml</dc:format><dc:type
         rdf:resource="http://purl.org/dc/dcmitype/StillImage" /></cc:Work></rdf:RDF></metadata><defs
   id="defs73" /><sodipodi:namedview
   pagecolor="#ffffff"
   bordercolor="#666666"
   borderopacity="1"
   objecttolerance="10"
   gridtolerance="10"
   guidetolerance="10"
   inkscape:pageopacity="0"
   inkscape:pageshadow="2"
   inkscape:window-width="1853"
   inkscape:window-height="1025"
   id="namedview71"
   showgrid="false"
   inkscape:zoom="0.46093841"
   inkscape:cx="67.254112"
   inkscape:cy="776.67645"
   inkscape:window-x="67"
   inkscape:window-y="27"
   inkscape:window-maximized="1"
   inkscape:current-layer="Capa_1" />






























<path
   style="opacity:1;fill:#dae1e7;fill-opacity:1;stroke:none;stroke-width:1.80132902;stroke-miterlimit:4;stroke-dasharray:none;stroke-opacity:1"
   id="path2186"
   sodipodi:type="arc"
   sodipodi:cx="255.98085"
   sodipodi:cy="255.9995"
   sodipodi:rx="242.98558"
   sodipodi:ry="242.98558"
   sodipodi:start="3.479279"
   sodipodi:end="3.1240695"
   sodipodi:open="true"
   d="M 26.718193,175.49716 A 242.98558,242.98558 0 0 1 315.83366,20.500805 242.98558,242.98558 0 0 1 495.85969,294.7311 242.98558,242.98558 0 0 1 238.67569,498.36807 242.98558,242.98558 0 0 1 13.032575,260.25715" /><g
   id="g2184"
   transform="matrix(0.75192764,0,0,0.75192764,282.10026,109.18273)"><path
     id="path2"
     d="m -34.712796,-60.746147 c -101.261004,0 -183.652004,82.391 -183.652004,183.651997 0,103.987 0,170.478 0,278.261 0,27.619 22.468,50.087 50.087,50.087 28.325,0 50.087,-23.628 50.087,-50.087 v -16.696 c 0,-9.206 7.49,-16.696 16.696,-16.696 9.206004,0 16.696004,7.49 16.696004,16.696 v 16.696 c 0,26.4 21.691,50.087 50.087,50.087 28.3249999,0 50.087,-23.628 50.087,-50.087 v -16.696 c 0,-9.206 7.49,-16.696 16.696,-16.696 9.206,0 16.696,7.49 16.696,16.696 v 16.696 c 0,26.4 21.691,50.087 50.087,50.087 27.618996,0 50.086996,-22.468 50.086996,-50.087 0,-107.945 0,-174.011 0,-278.261 C 148.9392,21.644853 66.548204,-60.746147 -34.712796,-60.746147 Z"
     style="fill:#9b7ffa"
     inkscape:connector-curvature="0" /><path
     id="path4"
     d="m 15.374204,401.16685 v -16.696 c 0,-9.206 7.49,-16.696 16.696,-16.696 9.206,0 16.696,7.49 16.696,16.696 v 16.696 c 0,26.4 21.69,50.087 50.087,50.087 27.618996,0 50.086996,-22.468 50.086996,-50.087 0,-107.945 0,-174.012 0,-278.261 C 148.9392,21.644853 66.548204,-60.746147 -34.712796,-60.746147 V 451.25385 c 28.3249999,0 50.087,-23.628 50.087,-50.087 z"
     style="fill:#8766fa"
     inkscape:connector-curvature="0" /><path
     id="path6"
     d="m -101.4958,172.99285 c -27.619,0 -50.087,-22.468 -50.087,-50.087 0,-27.618997 22.468,-50.086997 50.087,-50.086997 27.619004,0 50.087004,22.468 50.087004,50.086997 0,27.619 -22.468,50.087 -50.087004,50.087 z"
     style="fill:#e7ecfd"
     inkscape:connector-curvature="0" /><path
     id="path8"
     d="m -101.4958,139.60185 c -9.206,0 -16.696,-7.49 -16.696,-16.696 0,-9.206 7.49,-16.696 16.696,-16.696 9.206004,0 16.696004,7.49 16.696004,16.696 0,9.206 -7.49,16.696 -16.696004,16.696 z"
     style="fill:#5d5f66"
     inkscape:connector-curvature="0" /><path
     id="path10"
     d="m 32.070204,172.99285 c -27.6190001,0 -50.087,-22.468 -50.087,-50.087 0,-27.618997 22.4679999,-50.086997 50.087,-50.086997 27.619,0 50.087,22.468 50.087,50.086997 0,27.619 -22.468,50.087 -50.087,50.087 z"
     style="fill:#dae0f0"
     inkscape:connector-curvature="0" /><path
     id="path12"
     d="m 32.070204,139.60185 c -9.206,0 -16.696,-7.49 -16.696,-16.696 0,-9.206 7.49,-16.696 16.696,-16.696 9.206,0 16.696,7.49 16.696,16.696 0,9.206 -7.49,16.696 -16.696,16.696 z"
     style="fill:#55575c"
     inkscape:connector-curvature="0" /><g
     id="g14"
     transform="translate(-290.7128,-60.746147)" /><g
     id="g16"
     transform="translate(-290.7128,-60.746147)" /><g
     id="g18"
     transform="translate(-290.7128,-60.746147)" /><g
     id="g20"
     transform="translate(-290.7128,-60.746147)" /><g
     id="g22"
     transform="translate(-290.7128,-60.746147)" /><g
     id="g24"
     transform="translate(-290.7128,-60.746147)" /><g
     id="g26"
     transform="translate(-290.7128,-60.746147)" /><g
     id="g28"
     transform="translate(-290.7128,-60.746147)" /><g
     id="g30"
     transform="translate(-290.7128,-60.746147)" /><g
     id="g32"
     transform="translate(-290.7128,-60.746147)" /><g
     id="g34"
     transform="translate(-290.7128,-60.746147)" /><g
     id="g36"
     transform="translate(-290.7128,-60.746147)" /><g
     id="g38"
     transform="translate(-290.7128,-60.746147)" /><g
     id="g40"
     transform="translate(-290.7128,-60.746147)" /><g
     id="g42"
     transform="translate(-290.7128,-60.746147)" /></g></svg>