<?xml version="1.0" encoding="UTF-8" standalone="no"?>
<svg
   xmlns:dc="http://purl.org/dc/elements/1.1/"
   xmlns:cc="http://creativecommons.org/ns#"
   xmlns:rdf="http://www.w3.org/1999/02/22-rdf-syntax-ns#"
   xmlns:svg="http://www.w3.org/2000/svg"
   xmlns="http://www.w3.org/2000/svg"
   xmlns:sodipodi="http://sodipodi.sourceforge.net/DTD/sodipodi-0.dtd"
   xmlns:inkscape="http://www.inkscape.org/namespaces/inkscape"
   inkscape:version="1.0 (4035a4f, 2020-05-01)"
   sodipodi:docname="profile.svg"
   id="svg1512"
   version="1.1"
   width="511pt"
   viewBox="0 -17 511.99917 511"
   height="511pt">
  <metadata
     id="metadata1518">
    <rdf:RDF>
      <cc:Work
         rdf:about="">
        <dc:format>image/svg+xml</dc:format>
        <dc:type
           rdf:resource="http://purl.org/dc/dcmitype/StillImage" />
      </cc:Work>
    </rdf:RDF>
  </metadata>
  <defs
     id="defs1516" />
  <sodipodi:namedview
     inkscape:current-layer="svg1512"
     inkscape:window-maximized="0"
     inkscape:window-y="0"
     inkscape:window-x="0"
     inkscape:cy="340.66667"
     inkscape:cx="318.56937"
     inkscape:zoom="0.81457926"
     showgrid="false"
     id="namedview1514"
     inkscape:window-height="900"
     inkscape:window-width="1440"
     inkscape:pageshadow="2"
     inkscape:pageopacity="0"
     guidetolerance="10"
     gridtolerance="10"
     objecttolerance="10"
     borderopacity="1"
     bordercolor="#666666"
     pagecolor="#ffffff" />
  <g
     transform="matrix(0.90991032,0,0,0.90332738,23.06301,22.543003)"
     id="g1534">
    <path
       d="m 23.21875,120.04688 c 0,0 -11.015625,32.49999 -9.429688,73.96093 0.777344,20.24219 25.609376,29.4336 39.503907,14.69531 30.242187,-32.07812 80.640621,-70.72265 138.839841,-55.78125 -3.84375,-3.84375 -38.4375,-98.660151 -38.4375,-98.660151 0,0 -93.10156,-17.0625 -130.47656,65.785161 z m 0,0"
       fill="#b86eff"
       id="path1484" />
    <path
       d="m 192.13281,152.92187 c -3.84375,-3.84375 -38.4375,-98.660151 -38.4375,-98.660151 0,0 -93.10156,-17.0625 -130.47656,65.785161 0,0 -1.359375,4.01171 -3.050781,10.99999 24.050781,2.14844 51.550781,13.86719 57.867187,54.53516 29.832034,-24.26953 69.695314,-44.05859 114.097654,-32.66016 z m 0,0"
       fill="#9f4dff"
       id="path1486" />
    <path
       d="m 31.78125,403.92187 c 0,0 111.56641,-62.73828 101.08594,-175.92578 C 122.38672,114.80859 82.808594,25.722656 23.21875,120.04688 c 0,0 33.835938,-138.371099 214.99609,-117.378911 190.96094,22.125 208.83594,377.289061 208.83594,377.289061 z m 0,0"
       fill="#cf92ff"
       id="path1488" />
    <path
       d="m 129.08203,196.40625 c 1.52344,10.21875 2.78516,20.79297 3.78516,31.58984 10.48047,113.1875 -101.082034,175.92578 -101.082034,175.92578 l 138.570314,-7.99609 c 21.79687,-119.01953 -41.16016,-199.375 -41.27344,-199.51953 z m 0,0"
       fill="#b86eff"
       id="path1490" />
    <path
       d="m 31.78125,403.92187 415.26953,-23.96484 c 0,0 -2.9375,-58.33203 -19.13672,-129.18359 -45.76953,10.14062 -102.74609,23.27734 -155.17187,36.80468 -70.69922,18.2461 -119.82422,10.57032 -146.44141,2.4336 -23.28125,73.84765 -94.51953,113.91015 -94.51953,113.91015 z m 0,0"
       fill="#ffeb99"
       id="path1492" />
    <path
       d="m 170.66797,298.05859 c -18.57422,-1.41406 -33.39063,-4.6914 -44.36719,-8.04687 -23.28125,73.84765 -94.51953,113.91015 -94.51953,113.91015 l 138.57422,-7.99609 c 6.72265,-36.71094 5.38281,-69.73437 0.3125,-97.86719 z m 0,0"
       fill="#ffde55"
       id="path1494" />
    <path
       d="m 255.13672,373.65625 -18.28516,-79.13281 c -2.34765,-10.16407 3.98828,-20.3125 14.15235,-22.66016 l 92.10156,-21.28516 c 10.16406,-2.35156 20.3125,3.98829 22.66406,14.15235 l 18.28516,79.1289 c 2.34765,10.16797 -3.98828,20.3125 -14.15235,22.66407 l -92.10156,21.28515 c -15.79687,3.71875 -21.53516,-9.26953 -22.66406,-14.15234 z m 22.78125,-69.23047 9.78125,42.3125 55.28906,-12.77734 -9.78125,-42.3125 z m 0,0"
       fill="#898890"
       id="path1496" />
    <path
       d="m 9.316406,385.55469 c 8.84375,-9.82813 22.332032,-14.0625 35.199219,-11.03125 35.480469,8.36718 113.128905,22.10547 199.792965,8.53125 64.34766,-10.07813 126.3711,-32.17578 172.30469,-51.75 39.78516,-16.95703 88.84375,10.7539 94.51563,48.99609 5.67187,38.24219 -16.75782,75.67188 -55.27344,82.53906 -43.25391,7.71094 -110.49219,14.79688 -211.54688,14.79688 C 123.75,477.63672 56.824219,459.30469 20.847656,442.57031 -1.1875,432.32422 -6.9375,403.61719 9.316406,385.55469 Z m 0,0"
       fill="#dfaeff"
       id="path1498" />
    <path
       d="m 508.125,416.43359 c -24.24219,-24.52343 -72.51172,-30.30468 -117.82031,-0.53125 -81.125,53.3125 -188.5625,60.91797 -188.5625,60.91797 13.38672,0.52735 27.55859,0.8125 42.5664,0.8125 101.05469,0 168.29297,-7.08593 211.54688,-14.79687 25.95312,-4.62891 44.60156,-23.125 52.26953,-46.40235 z m 0,0"
       fill="#cf92ff"
       id="path1500" />
    <g
       fill="#57565c"
       id="g1508">
      <path
         d="m 363.71484,185.94141 c -4.1914,0.82031 -8.25781,-1.91407 -9.07812,-6.10547 l -2.46875,-12.60938 c -0.82031,-4.1914 1.91015,-8.25781 6.10547,-9.07812 4.19531,-0.82032 8.25781,1.91015 9.08203,6.10547 l 2.46875,12.60546 c 0.82031,4.19532 -1.91406,8.26172 -6.10938,9.08204 z m 0,0"
         id="path1502" />
      <path
         d="m 200.39844,217.92187 c -4.19532,0.82422 -8.25782,-1.91015 -9.08203,-6.10546 l -2.46875,-12.60547 c -0.82032,-4.19532 1.91406,-8.25782 6.10937,-9.08203 4.19141,-0.82032 8.25781,1.91406 9.07813,6.10937 l 2.46875,12.60547 c 0.82031,4.19531 -1.91016,8.25781 -6.10547,9.07812 z m 0,0"
         id="path1504" />
      <path
         d="m 283.61328,209.88281 c -9.82812,1.92188 -20.27734,0.66797 -29.72266,-4.08594 -3.8164,-1.92187 -5.35546,-6.57421 -3.43359,-10.39062 1.92188,-3.81641 6.57422,-5.35547 10.39063,-3.43359 12.58203,6.33203 27.83593,3.34765 37.09765,-7.26563 2.8086,-3.21875 7.69531,-3.55078 10.91406,-0.73828 3.22266,2.8125 3.55469,7.69922 0.74219,10.91797 -6.95312,7.96875 -16.16015,13.07031 -25.98828,14.99609 z m 0,0"
         id="path1506" />
    </g>
    <path
       d="m 133.35547,436.71094 c 0.43359,-33.82032 31.09765,-45.9336 36.92969,-47.9336 -55.07813,0.15625 -100.835941,-8.375 -125.769535,-14.2539 -12.867187,-3.03516 -26.355469,1.20312 -35.199219,11.03125 -16.257812,18.0625 -10.503906,46.76953 11.53125,57.01562 27.441406,12.76563 72.898438,26.45703 146.421874,32.23828 -5.80078,-0.57422 -34.33984,-5.07422 -33.91406,-38.09765 z m 0,0"
       fill="#cf92ff"
       id="path1510" />
  </g>
</svg>
