<?xml version="1.0" encoding="UTF-8" standalone="no"?>
<svg
   xmlns:dc="http://purl.org/dc/elements/1.1/"
   xmlns:cc="http://creativecommons.org/ns#"
   xmlns:rdf="http://www.w3.org/1999/02/22-rdf-syntax-ns#"
   xmlns:svg="http://www.w3.org/2000/svg"
   xmlns="http://www.w3.org/2000/svg"
   xmlns:sodipodi="http://sodipodi.sourceforge.net/DTD/sodipodi-0.dtd"
   xmlns:inkscape="http://www.inkscape.org/namespaces/inkscape"
   inkscape:version="1.0 (4035a4f, 2020-05-01)"
   sodipodi:docname="vocabcourse.svg"
   xml:space="preserve"
   style="enable-background:new 0 0 512.001 512.001;"
   viewBox="0 0 512.001 512.001"
   y="0px"
   x="0px"
   id="Capa_1"
   version="1.1"><metadata
   id="metadata1819"><rdf:RDF><cc:Work
       rdf:about=""><dc:format>image/svg+xml</dc:format><dc:type
         rdf:resource="http://purl.org/dc/dcmitype/StillImage" /></cc:Work></rdf:RDF></metadata><defs
   id="defs1817" /><sodipodi:namedview
   inkscape:current-layer="Capa_1"
   inkscape:window-maximized="0"
   inkscape:window-y="0"
   inkscape:window-x="0"
   inkscape:cy="256.0005"
   inkscape:cx="256.0005"
   inkscape:zoom="1.0839823"
   showgrid="false"
   id="namedview1815"
   inkscape:window-height="900"
   inkscape:window-width="1440"
   inkscape:pageshadow="2"
   inkscape:pageopacity="0"
   guidetolerance="10"
   gridtolerance="10"
   objecttolerance="10"
   borderopacity="1"
   bordercolor="#666666"
   pagecolor="#ffffff" />





































<g
   transform="matrix(0.8828829,0,0,0.8828829,29.981761,29.982013)"
   id="g1872"><path
     style="fill:#eda751"
     d="m 82.496,419.062 c -1.647,0 -3.322,-0.274 -4.965,-0.85 -7.8,-2.743 -11.9,-11.287 -9.159,-19.088 4.74,-13.485 15.14,-23.871 29.282,-29.245 20.505,-7.794 46.624,-4.745 69.869,8.153 10.066,5.587 17.849,5.572 26.859,-0.043 9.951,-6.202 19.876,-18.41 29.474,-30.215 l 2.937,-3.607 c 5.234,-6.403 14.665,-7.351 21.065,-2.123 6.403,5.231 7.353,14.663 2.123,21.065 l -2.892,3.552 c -11.148,13.713 -22.676,27.893 -36.87,36.738 -18.342,11.429 -37.594,11.704 -57.22,0.815 -15.162,-8.413 -32.71,-10.906 -44.708,-6.346 -5.926,2.251 -9.852,6.015 -11.67,11.186 -2.166,6.156 -7.949,10.008 -14.125,10.008 z"
     id="path1712" /><path
     style="opacity:0.2;fill:#a35f00;enable-background:new"
     d="m 247.858,342.044 c -6.4,-5.228 -15.831,-4.28 -21.065,2.123 l -2.937,3.607 c -9.597,11.805 -19.523,24.013 -29.474,30.215 -9.01,5.615 -16.792,5.63 -26.859,0.043 -11.456,-6.356 -23.609,-10.316 -35.445,-11.769 l 53.779,45.71 c 8.262,-0.756 16.397,-3.613 24.361,-8.575 14.194,-8.845 25.722,-23.025 36.87,-36.738 l 2.892,-3.552 c 5.231,-6.402 4.281,-15.833 -2.122,-21.064 z"
     id="path1714" /><path
     style="fill:#fcd79d"
     d="m 74.598,387.207 c -2.61,3.615 -4.71,7.605 -6.225,11.916 -2.741,7.801 1.359,16.346 9.159,19.088 1.643,0.576 3.318,0.85 4.965,0.85 6.176,0 11.959,-3.852 14.123,-10.009 0.856,-2.435 2.197,-4.547 3.978,-6.347 -6.198,-9.525 -17.638,-13.964 -26,-15.498 z"
     id="path1716" /><path
     style="fill:#eda751"
     d="m 233.108,496.15 c -2.65,0 -5.342,-0.443 -7.983,-1.376 -12.472,-4.409 -19.009,-18.094 -14.6,-30.566 8.135,-23.01 15.583,-48.269 9.143,-61.147 -5.916,-11.832 -1.12,-26.22 10.712,-32.136 11.835,-5.916 26.219,-1.119 32.136,10.712 13.618,27.237 7.12,59.089 -6.826,98.537 -3.475,9.831 -12.717,15.976 -22.582,15.976 z"
     id="path1718" /><path
     style="opacity:0.2;fill:#a35f00;enable-background:new"
     d="m 230.38,370.925 c -11.832,5.916 -16.628,20.303 -10.712,32.136 4.159,8.317 2.522,21.8 -1.348,36.504 l 39.734,33.772 c 12.27,-36.316 17.284,-66.055 4.462,-91.7 -5.917,-11.832 -20.301,-16.628 -32.136,-10.712 z"
     id="path1720" /><path
     style="fill:#eda751"
     d="m 364.239,495.751 c -2.649,0 -5.344,-0.443 -7.983,-1.377 -12.472,-4.409 -19.009,-18.094 -14.599,-30.566 4.416,-12.493 2.42,-24.835 -0.033,-32.991 -3.141,-10.444 -8.056,-17.514 -9.934,-19.289 -10.464,-7.824 -12.738,-22.63 -5.041,-33.242 7.766,-10.708 22.746,-13.093 33.453,-5.327 18.419,13.36 43.102,60.479 26.721,106.816 -3.477,9.832 -12.718,15.976 -22.584,15.976 z m -32.274,-84.019 c 0.004,0.002 0.007,0.005 0.01,0.007 -0.003,-0.003 -0.006,-0.005 -0.01,-0.007 z"
     id="path1722" /><ellipse
     style="fill:#fcd690"
     cx="291.79099"
     cy="324.95999"
     rx="110.48"
     ry="102.66"
     id="ellipse1724" /><path
     style="opacity:0.15;fill:#c17a00;enable-background:new"
     d="M 275.658,426.525 C 225.173,393.38 240.819,325.447 249.39,295.738 v -65.597 c -39.97,15.451 -68.076,52.083 -68.076,94.819 0,51.603 40.978,94.308 94.344,101.565 z"
     id="path1726" /><path
     style="fill:#eda751"
     d="M 224.559,146.952 C 246.177,128.813 260.61,98.361 230.118,53.347 199.385,7.976 153.629,-3.397 117.906,0.812 109.099,1.85 101.71,8.05 99.158,16.543 c -10.348,34.449 -7.093,81.485 32.251,119.63 39.037,37.845 71.532,28.919 93.15,10.779 z"
     id="path1728" /><path
     style="fill:#ff91ab"
     d="m 97.721,21.814 c -8.483,33.871 -3.687,78.122 33.689,114.358 33.835,32.803 62.75,30.459 83.933,17.443 C 200.775,54.715 137.133,28.489 97.721,21.814 Z"
     id="path1730" /><path
     style="fill:#eda751"
     d="m 359.023,146.952 c -21.618,-18.139 -36.051,-48.591 -5.559,-93.605 30.733,-45.37 76.49,-56.743 112.212,-52.535 8.807,1.038 16.196,7.238 18.747,15.731 10.348,34.449 7.093,81.485 -32.251,119.63 -39.036,37.845 -71.531,28.919 -93.149,10.779 z"
     id="path1732" /><path
     style="fill:#ff91ab"
     d="m 485.861,21.814 c 8.483,33.871 3.687,78.122 -33.689,114.358 -33.835,32.803 -62.75,30.459 -83.933,17.443 14.568,-98.9 78.21,-125.126 117.622,-131.801 z"
     id="path1734" /><path
     style="fill:#ffdc9c"
     d="m 479.876,174.33 c 0,85.998 -84.209,123.664 -188.085,123.664 -103.877,0 -188.085,-37.666 -188.085,-123.664 0,-85.998 84.208,-155.712 188.085,-155.712 103.877,0 188.085,69.715 188.085,155.712 z"
     id="path1736" /><path
     style="opacity:0.15;fill:#c17a00;enable-background:new"
     d="m 191.363,42.659 c -52.675,27.595 -87.657,76.248 -87.657,131.672 0,73.926 62.228,112.137 145.684,121.408 C 129.591,224.179 145.215,127.925 191.363,42.659 Z"
     id="path1738" /><g
     id="g1744">
	<ellipse
   style="fill:#ff91ab"
   cx="221.241"
   cy="193.97"
   rx="34.049999"
   ry="27.120001"
   id="ellipse1740" />
	<ellipse
   style="fill:#ff91ab"
   cx="405.83099"
   cy="193.97"
   rx="34.049999"
   ry="27.120001"
   id="ellipse1742" />
</g><g
     id="g1764">
	<path
   style="fill:#495059"
   d="m 241.084,174.418 c -4.143,0 -7.5,-3.357 -7.5,-7.5 v -12.025 c 0,-4.143 3.357,-7.5 7.5,-7.5 4.143,0 7.5,3.357 7.5,7.5 v 12.025 c 0,4.142 -3.357,7.5 -7.5,7.5 z"
   id="path1746" />
	<path
   style="fill:#495059"
   d="m 385.98,174.418 c -4.143,0 -7.5,-3.357 -7.5,-7.5 v -12.025 c 0,-4.143 3.357,-7.5 7.5,-7.5 4.143,0 7.5,3.357 7.5,7.5 v 12.025 c 0,4.142 -3.358,7.5 -7.5,7.5 z"
   id="path1748" />
	<path
   style="fill:#495059"
   d="m 313.532,183.653 c -9.488,0 -18.512,-4.109 -24.755,-11.275 -2.722,-3.123 -2.396,-7.86 0.727,-10.581 3.122,-2.721 7.86,-2.396 10.581,0.727 3.395,3.895 8.295,6.129 13.446,6.129 5.15,0 10.051,-2.234 13.445,-6.129 2.72,-3.124 7.459,-3.449 10.581,-0.727 3.123,2.721 3.449,7.458 0.728,10.581 -6.242,7.166 -15.264,11.275 -24.753,11.275 z"
   id="path1750" />
	<path
   style="fill:#495059"
   d="m 173.217,198.311 c -3.36,0 -6.418,-2.274 -7.271,-5.683 -1.005,-4.019 1.439,-8.091 5.457,-9.096 9.371,-2.343 31.703,-4.014 42.578,-2.574 4.106,0.543 6.996,4.312 6.453,8.418 -0.543,4.107 -4.323,7 -8.418,6.453 -8.83,-1.169 -29.255,0.324 -36.975,2.256 -0.609,0.153 -1.221,0.226 -1.824,0.226 z"
   id="path1752" />
	<path
   style="fill:#495059"
   d="m 184.064,238.663 c -2.3,0 -4.569,-1.055 -6.04,-3.047 -2.46,-3.332 -1.753,-8.028 1.58,-10.488 7.769,-5.735 27.778,-15.787 38.385,-18.604 4.006,-1.059 8.111,1.322 9.174,5.324 1.063,4.003 -1.32,8.11 -5.324,9.174 -8.609,2.286 -26.925,11.448 -33.326,16.174 -1.341,0.989 -2.902,1.467 -4.449,1.467 z"
   id="path1754" />
	<path
   style="fill:#495059"
   d="m 453.847,198.311 c -0.602,0 -1.215,-0.073 -1.825,-0.226 -7.72,-1.93 -28.143,-3.421 -36.975,-2.256 -4.094,0.546 -7.875,-2.346 -8.418,-6.453 -0.543,-4.106 2.347,-7.875 6.453,-8.418 10.881,-1.438 33.209,0.231 42.578,2.574 4.018,1.006 6.462,5.077 5.457,9.096 -0.852,3.409 -3.91,5.683 -7.27,5.683 z"
   id="path1756" />
	<path
   style="fill:#495059"
   d="m 443,238.663 c -1.548,0 -3.108,-0.478 -4.448,-1.467 -6.401,-4.726 -24.717,-13.888 -33.326,-16.174 -4.004,-1.064 -6.387,-5.171 -5.324,-9.174 1.064,-4.004 5.169,-6.387 9.174,-5.324 10.607,2.816 30.616,12.868 38.385,18.604 3.333,2.46 4.04,7.156 1.58,10.488 -1.471,1.992 -3.741,3.047 -6.041,3.047 z"
   id="path1758" />
	<path
   style="fill:#495059"
   d="m 496.962,508.821 h -81.295 c -4.143,0 -7.5,-3.357 -7.5,-7.5 0,-4.143 3.357,-7.5 7.5,-7.5 h 81.295 c 4.143,0 7.5,3.357 7.5,7.5 0,4.143 -3.357,7.5 -7.5,7.5 z"
   id="path1760" />
	
		<rect
   x="39.473"
   y="210.834"
   transform="matrix(-0.6428,0.766,-0.766,-0.6428,354.8255,307.8006)"
   style="fill:#495059"
   width="132.35699"
   height="51.583"
   id="rect1762" />
</g><path
     style="fill:#ff91ab"
     d="M 128.44,169.35 43.363,270.74 18.074,249.52 C 5.598,239.052 3.971,220.452 14.439,207.976 l 47.167,-56.212 c 10.468,-12.476 29.068,-14.103 41.544,-3.635 z"
     id="path1766" /><path
     style="fill:#f5d141"
     d="M 82.878,303.898 295.47,484.591 c 9.863,8.276 21.856,13.608 34.608,15.386 l 85.382,11.906 c 8.589,1.198 15.471,-7.004 12.8,-15.254 l -26.551,-82.017 c -3.965,-12.249 -11.299,-23.134 -21.162,-31.41 L 167.955,202.508 Z"
     id="path1768" /><rect
     x="90.459999"
     y="341.68701"
     transform="matrix(-0.766,-0.6428,0.6428,-0.766,199.0478,770.8253)"
     style="opacity:0.1;enable-background:new"
     width="298.702"
     height="15"
     id="rect1770" /><path
     style="fill:#ffdc9c"
     d="m 312.429,495.034 c 5.61,2.416 11.54,4.092 17.65,4.944 l 85.382,11.906 c 8.589,1.198 15.471,-7.004 12.8,-15.254 L 401.71,414.613 c -1.9,-5.868 -4.58,-11.418 -7.933,-16.523 z"
     id="path1772" /><path
     style="fill:#495059"
     d="m 376.074,506.391 39.386,5.492 c 8.589,1.198 15.471,-7.004 12.8,-15.254 l -12.248,-37.834 z"
     id="path1774" /><path
     style="opacity:0.1;enable-background:new"
     d="m 415.46,511.883 c 3.9,0.544 7.436,-0.862 9.897,-3.318 C 200.099,409.764 59.578,234.439 35.679,182.665 L 14.44,207.977 c -10.469,12.476 -8.841,31.076 3.635,41.544 l 25.289,21.22 39.515,33.157 212.592,180.693 c 9.863,8.276 21.856,13.608 34.608,15.386 z"
     id="path1776" /><g
     id="g1782">
	<path
   style="fill:#eda751"
   d="m 124.534,354.674 c -3.794,0 -7.643,-0.904 -11.227,-2.809 -11.679,-6.213 -16.112,-20.716 -9.9,-32.396 1.436,-2.701 9.128,-16.81 19.523,-29.425 8.413,-10.209 23.509,-11.665 33.717,-3.253 10.209,8.413 11.665,23.508 3.253,33.717 -6.203,7.528 -11.843,17.029 -14.197,21.456 -4.307,8.096 -12.598,12.71 -21.169,12.71 z"
   id="path1778" />
	<path
   style="fill:#eda751"
   d="m 324.838,361.706 c -0.049,0 -0.098,0 -0.147,0 -13.229,-0.036 -23.923,-10.789 -23.887,-24.018 0.036,-13.206 10.754,-23.887 23.951,-23.887 0.036,0.001 0.07,0.001 0.108,0 9.569,0 36.012,-9.212 48.215,-19.758 10.009,-8.649 25.135,-7.547 33.785,2.462 8.649,10.009 7.547,25.135 -2.462,33.785 -19.399,16.763 -56.528,31.416 -79.563,31.416 z"
   id="path1780" />
</g><g
     id="g1784">
</g><g
     id="g1786">
</g><g
     id="g1788">
</g><g
     id="g1790">
</g><g
     id="g1792">
</g><g
     id="g1794">
</g><g
     id="g1796">
</g><g
     id="g1798">
</g><g
     id="g1800">
</g><g
     id="g1802">
</g><g
     id="g1804">
</g><g
     id="g1806">
</g><g
     id="g1808">
</g><g
     id="g1810">
</g><g
     id="g1812">
</g></g>
</svg>
