<svg height="512pt" viewBox="-13 0 512 512.00039" width="512pt" xmlns="http://www.w3.org/2000/svg"><path d="m473.574219 117.253906-51.132813-51.136718c-17.152344-17.148438-44.957031-17.148438-62.109375 0l-63.378906 63.378906 113.242187 113.242187 63.378907-63.378906c17.152343-17.148437 17.152343-44.957031 0-62.105469zm0 0" fill="#eab9a4"/><path d="m470.507812 114.1875-48.066406-48.066406c-17.152344-17.152344-44.957031-17.152344-62.109375 0l-63.378906 63.375 48.066406 48.070312 63.378907-63.378906c17.152343-17.152344 44.960937-17.152344 62.109374 0zm0 0" fill="#dd9f80"/><path d="m51.144531 488.546875c-31.269531-31.269531-31.269531-81.972656 0-113.242187l253.132813-253.128907 113.242187 113.242188-253.128906 253.128906c-31.273437 31.269531-81.972656 31.269531-113.246094 0zm0 0" fill="#abebf4"/><path d="m51.144531 488.546875c6.996094 6.996094 14.972657 12.429687 23.476563 16.292969-3.972656-24.117188-1.351563-51.953125 13.636718-82.683594 29.910157-61.328125 85.855469-111.378906 129.128907-143.394531 28.023437-20.730469 66.160156-20.03125 93.882812 1.105469 14.46875 11.027343 29.175781 17.257812 40.644531 21.152343l65.605469-65.601562-113.242187-113.246094-253.132813 253.132813c-31.269531 31.269531-31.269531 81.972656 0 113.242187zm0 0" fill="#8ed7e8"/><path d="m51.144531 375.304688c-31.269531 31.269531-31.269531 81.972656 0 113.242187 31.273438 31.269531 81.972657 31.269531 113.246094 0l120.574219-120.574219c-59.554688-46.371094-90.882813-135.605468-90.882813-135.605468zm0 0" fill="#cf92ff"/><path d="m51.144531 488.546875c6.996094 6.996094 14.972657 12.429687 23.476563 16.292969-3.96875-24.113282-1.347656-51.957032 13.636718-82.683594 29.523438-60.535156 84.414063-110.082031 127.441407-142.144531-14.292969-26.785157-21.617188-47.644531-21.617188-47.644531l-142.9375 142.9375c-31.269531 31.269531-31.269531 81.972656 0 113.242187zm0 0" fill="#b86eff"/><path d="m371.8125 277.585938-109.703125-109.707032c-20.222656-20.222656-20.222656-53.007812 0-73.230468 20.21875-20.21875 53.003906-20.21875 73.226563 0l109.707031 109.707031c20.21875 20.222656 20.21875 53.007812 0 73.230469-20.222657 20.222656-53.007813 20.222656-73.230469 0zm0 0" fill="#ccf8ff"/><path d="m328.007812 160.554688c20.222657-20.222657 53.007813-20.222657 73.230469 0l-65.902343-65.902344c-20.21875-20.222656-53.007813-20.222656-73.226563 0-20.222656 20.21875-20.222656 53.007812 0 73.226562l65.898437 65.90625c-20.21875-20.222656-20.21875-53.011718 0-73.230468zm0 0" fill="#abebf4"/><path d="m194.082031 232.367188c-34.9375 34.9375 1.503907 111.910156 90.882813 135.601562 0 0-34.914063-36.3125-30.070313-83.171875 4.851563-46.863281-24.476562-88.765625-60.8125-52.429687zm0 0" fill="#dfaeff"/><path d="m190.390625 299.933594c9.292969-7.730469 18.402344-14.8125 27-21.171875 11.285156-8.351563 24.21875-13.226563 37.449219-14.6875-4.148438-37.050781-29.925782-62.535157-60.753906-31.707031-16.496094 16.496093-17.085938 42.363281-3.695313 67.566406zm0 0" fill="#cf92ff"/><path d="m154.878906 7.5 5.34375 9.769531c5.332032 9.75 13.347656 17.761719 23.09375 23.09375l9.769532 5.34375c10 5.46875 10 19.832031 0 25.300781l-9.769532 5.34375c-9.75 5.332032-17.761718 13.347657-23.09375 23.09375l-5.34375 9.769532c-5.46875 10-19.832031 10-25.300781 0l-5.34375-9.769532c-5.332031-9.746093-13.347656-17.761718-23.09375-23.089843l-9.769531-5.347657c-10-5.46875-10-19.832031 0-25.300781l9.769531-5.34375c9.746094-5.332031 17.761719-13.34375 23.09375-23.089843l5.34375-9.773438c5.46875-10 19.832031-10 25.300781 0zm0 0" fill="#ffeb99"/><path d="m46.453125 199.363281 3.496094 6.394531c3.488281 6.375 8.730469 11.617188 15.109375 15.105469l6.390625 3.496094c6.542969 3.578125 6.542969 12.976563 0 16.550781l-6.390625 3.5c-6.378906 3.484375-11.621094 8.726563-15.109375 15.105469l-3.496094 6.390625c-3.578125 6.542969-12.972656 6.542969-16.550781 0l-3.496094-6.390625c-3.488281-6.375-8.730469-11.621094-15.109375-15.105469l-6.390625-3.5c-6.542969-3.574218-6.542969-12.972656 0-16.550781l6.390625-3.496094c6.378906-3.488281 11.621094-8.730469 15.109375-15.105469l3.496094-6.394531c3.578125-6.539062 12.972656-6.539062 16.550781 0zm0 0" fill="#ffde55"/><g fill="#ffeb99"><path d="m436.40625 338.914062 3.496094 6.390626c3.488281 6.378906 8.730468 11.621093 15.105468 15.105468l6.394532 3.5c6.539062 3.574219 6.539062 12.972656 0 16.550782l-6.394532 3.496093c-6.375 3.488281-11.617187 8.730469-15.105468 15.105469l-3.496094 6.394531c-3.578125 6.539063-12.972656 6.539063-16.550781 0l-3.496094-6.394531c-3.488281-6.375-8.730469-11.617188-15.109375-15.105469l-6.390625-3.496093c-6.542969-3.578126-6.542969-12.976563 0-16.550782l6.390625-3.5c6.375-3.484375 11.621094-8.726562 15.109375-15.105468l3.496094-6.390626c3.578125-6.542968 12.972656-6.542968 16.550781 0zm0 0"/><path d="m141.453125 362.5625c0 8.53125-6.917969 15.453125-15.449219 15.453125-8.535156 0-15.453125-6.921875-15.453125-15.453125 0-8.535156 6.917969-15.453125 15.453125-15.453125 8.53125 0 15.449219 6.917969 15.449219 15.453125zm0 0"/><path d="m217.082031 381.21875c0 8.53125-6.917969 15.453125-15.453125 15.453125s-15.453125-6.921875-15.453125-15.453125c0-8.535156 6.917969-15.453125 15.453125-15.453125s15.453125 6.917969 15.453125 15.453125zm0 0"/><path d="m139.925781 436.519531c0 8.535157-6.917969 15.453125-15.453125 15.453125-8.53125 0-15.449218-6.917968-15.449218-15.453125 0-8.535156 6.917968-15.453125 15.449218-15.453125 8.535156 0 15.453125 6.917969 15.453125 15.453125zm0 0"/></g></svg>